<svg xmlns="http://www.w3.org/2000/svg" version="1.1" xmlns:xlink="http://www.w3.org/1999/xlink" xmlns:svgjs="http://svgjs.dev/svgjs" width="2000" height="4450" viewBox="0 0 2000 4450"><g transform="matrix(1,0,0,1,-3.685050506898733,1.8016194331980842)"><svg viewBox="0 0 111 247" data-background-color="#e9efe7" preserveAspectRatio="xMidYMid meet" height="4450" width="2000" xmlns="http://www.w3.org/2000/svg" xmlns:xlink="http://www.w3.org/1999/xlink"><g id="tight-bounds" transform="matrix(1,0,0,1,0.20452030313288105,-0.09999999999999432)"><svg viewBox="0 0 110.59095939373421 247.2" height="247.2" width="110.59095939373421"><g><svg viewBox="0 0 110.59095939373421 247.2" height="247.2" width="110.59095939373421"><g><svg viewBox="0 0 237.3412914302939 530.5204653545377" height="247.2" width="110.59095939373421"><g transform="matrix(1,0,0,1,0,204.67425294302558)"><svg viewBox="0 0 237.3412914302939 325.84621241151217" height="325.84621241151217" width="237.3412914302939"><g id="textblocktransform"><svg viewBox="0 0 237.3412914302939 325.84621241151217" height="325.84621241151217" width="237.3412914302939" id="textblock"><g><svg viewBox="0 0 237.3412914302939 245.672304" height="245.672304" width="237.3412914302939"><g transform="matrix(1,0,0,1,0,0)"><svg width="237.3412914302939" viewBox="2.59 -32.4 31.3 32.4" height="245.672304" data-palette-color="#2a2c35"><path d="M33.89-32.4L33.89-6.47 27.42 0 19.09 0 19.09-6.47 23.1-6.47 23.1-32.4 33.89-32.4ZM13.4-32.4L13.4-6.47 17.38-6.47 17.38 0 9.08 0 2.59-6.47 2.59-32.4 13.4-32.4Z" opacity="1" transform="matrix(1,0,0,1,0,0)" fill="#ffffff" class="wordmark-text-0" data-fill-palette-color="primary" id="text-0"></path></svg></g></svg></g><g transform="matrix(1,0,0,1,0,303.669638839104)"><svg viewBox="0 0 237.3412914302939 22.1765735724082" height="22.1765735724082" width="237.3412914302939"><g transform="matrix(1,0,0,1,0,0)"><svg width="237.3412914302939" viewBox="2.98 -37.7 431.25 40.30666666666667" height="22.1765735724082" data-palette-color="#2a2c35"><path d="M23-5.86L23-5.86Q22.51-5.81 22.41-5.91L22.41-5.91Q22.22-5.81 22.05-5.71 21.88-5.62 21.68-5.47L21.68-5.47Q21-5.22 20.34-4.83 19.68-4.44 18.99-4.1L18.99-4.1Q18.6-3.91 18.24-3.78 17.87-3.66 17.48-3.47L17.48-3.47Q16.89-3.17 16.31-2.86 15.72-2.54 15.09-2.29L15.09-2.29Q14.75-2.2 14.43-2.1 14.11-2 13.77-1.9L13.77-1.9Q13.38-1.76 13.06-1.59 12.74-1.42 12.4-1.27L12.4-1.27Q12.16-1.17 11.89-1.1 11.62-1.03 11.33-0.88L11.33-0.88Q11.08-0.78 10.91-0.63 10.74-0.49 10.5-0.39L10.5-0.39Q10.11-0.24 9.69-0.1 9.28 0.05 8.89 0.24L8.89 0.24Q8.5 0.44 8.33 0.61 8.15 0.78 7.67 0.93L7.67 0.93Q7.18 1.22 7.13 1.25 7.08 1.27 6.98 1.27L6.98 1.27Q6.84 1.37 6.71 1.44 6.59 1.51 6.45 1.61L6.45 1.61Q6.15 1.61 5.86 1.66 5.57 1.71 5.27 1.71L5.27 1.71Q4.93 1.51 4.81 1.32 4.69 1.12 4.69 0.78L4.69 0.78Q4.49 0.54 4.32 0.24 4.15-0.05 3.96-0.29L3.96-0.29Q3.61-0.1 3.54-0.32 3.47-0.54 3.42-0.81 3.37-1.07 3.32-1.34 3.27-1.61 3.22-1.71L3.22-1.71Q2.98-2.64 2.98-3.08L2.98-3.08Q2.98-3.32 3.08-3.39 3.17-3.47 3.17-3.61L3.17-3.61Q3.22-4.1 3.27-4.74 3.32-5.37 3.32-6.05 3.32-6.74 3.32-7.42 3.32-8.11 3.32-8.64L3.32-8.64Q3.32-10.84 3.27-12.92 3.22-14.99 3.22-17.09L3.22-17.09Q3.22-18.07 3.27-19.04 3.32-20.02 3.32-21L3.32-21Q3.32-23.39 3.39-25.73 3.47-28.08 3.47-30.47L3.47-30.47Q3.47-31.45 3.37-32.45 3.27-33.45 3.22-34.47L3.22-34.47Q3.17-35.01 3.27-35.33 3.37-35.64 3.32-35.99L3.32-35.99Q3.47-36.04 3.86-36.04 4.25-36.04 4.66-36.06 5.08-36.08 5.44-36.11 5.81-36.13 5.91-36.18L5.91-36.18Q6.25-35.94 6.59-35.94L6.59-35.94Q6.93-35.94 7.23-36.23L7.23-36.23Q7.47-36.13 7.5-36.08 7.52-36.04 7.76-36.04L7.76-36.04Q8.2-36.08 8.45-36.11 8.69-36.13 8.89-36.13L8.89-36.13Q9.42-35.74 9.55-35.18 9.67-34.62 9.72-34.01 9.77-33.4 9.79-32.79 9.81-32.18 9.81-31.79L9.81-31.79Q9.81-31.49 9.86-31.18 9.91-30.86 9.91-30.52L9.91-30.52Q9.91-30.27 9.89-30.03 9.86-29.79 9.86-29.54L9.86-29.54Q9.86-28.13 9.89-26.66 9.91-25.2 9.91-23.78L9.91-23.78Q9.91-21.24 9.84-18.68 9.77-16.11 9.77-13.57L9.77-13.57Q9.77-13.04 9.81-12.5 9.86-11.96 9.86-11.43L9.86-11.43Q9.86-11.13 9.84-10.84 9.81-10.55 9.81-10.25L9.81-10.25Q9.81-8.45 9.96-6.64L9.96-6.64Q10.16-6.69 10.79-6.91 11.43-7.13 12.11-7.4 12.79-7.67 13.38-7.93 13.96-8.2 14.11-8.35L14.11-8.35Q14.31-8.35 14.65-8.5 14.99-8.64 15.38-8.86 15.77-9.08 16.14-9.28 16.5-9.47 16.65-9.62L16.65-9.62Q16.6-10.6 16.6-11.6 16.6-12.6 16.6-13.57L16.6-13.57Q16.6-16.26 16.67-18.95 16.75-21.63 16.75-24.41L16.75-24.41Q16.75-26.12 16.7-27.83 16.65-29.54 16.65-31.25L16.65-31.25Q16.65-31.79 16.67-32.35 16.7-32.91 16.7-33.45L16.7-33.45Q16.7-34.28 16.67-35.08 16.65-35.89 16.75-36.72L16.75-36.72Q17.24-36.96 17.29-36.96L17.29-36.96Q17.58-36.96 17.7-36.96 17.82-36.96 17.92-36.87L17.92-36.87Q18.07-36.82 18.19-36.84 18.31-36.87 18.46-36.87L18.46-36.87Q18.7-36.87 18.95-36.77 19.19-36.67 19.43-36.67L19.43-36.67Q19.82-36.72 19.85-36.57 19.87-36.43 20.02-36.43L20.02-36.43Q20.41-36.57 20.56-36.43L20.56-36.43Q20.7-36.33 21.09-36.16 21.48-35.99 21.92-35.79 22.36-35.6 22.71-35.42 23.05-35.25 23.05-35.11L23.05-35.11Q23.19-34.33 23.14-33.45 23.1-32.57 23.1-31.79L23.1-31.79Q23.1-31.1 23.14-30.42 23.19-29.74 23.19-29.05L23.19-29.05Q23.19-28.66 23.19-28.27 23.19-27.88 23.24-27.54L23.24-27.54Q23.29-27.29 23.29-27.12 23.29-26.95 23.29-26.76L23.29-26.76Q23.29-26.51 23.39-26.12L23.39-26.12Q23.34-25.88 23.34-25.61 23.34-25.34 23.34-25.1L23.34-25.1Q23.34-24.41 23.39-23.68 23.44-22.95 23.44-22.22L23.44-22.22Q23.44-21.73 23.36-21.29 23.29-20.85 23.29-20.41L23.29-20.41 23.34-19.48Q23.34-18.99 23.39-18.51 23.44-18.02 23.44-17.48L23.44-17.48Q23.44-17.24 23.41-16.99 23.39-16.75 23.34-16.5L23.34-16.5Q23.29-16.26 23.29-15.97 23.29-15.67 23.29-15.43L23.29-15.43Q23.29-14.75 23.34-14.06 23.39-13.38 23.39-12.7L23.39-12.7Q23.39-12.26 23.36-11.84 23.34-11.43 23.34-10.99L23.34-10.99Q23.34-10.11 23.41-9.18 23.49-8.25 23.49-7.37L23.49-7.37Q23.49-6.98 23.39-6.54 23.29-6.1 23-5.86ZM49.41-34.91L49.41-34.91Q49.31-34.72 49.34-34.52 49.36-34.33 49.36-34.08L49.36-34.08Q49.27-33.5 49.36-33.5 49.46-33.5 49.46-33.4L49.46-33.4 49.12-32.91Q49.12-32.62 49-32.37 48.87-32.13 48.92-31.79L48.92-31.79Q48.78-31.54 48.65-31.3 48.53-31.05 48.29-30.81L48.29-30.81 47.65-30.81Q47.12-30.81 46.51-30.74 45.9-30.66 45.31-30.66L45.31-30.66Q45.21-30.66 45.07-30.69 44.92-30.71 44.77-30.71L44.77-30.71Q44.68-30.71 44.53-30.69 44.38-30.66 44.19-30.66L44.19-30.66Q43.45-30.66 42.75-30.74 42.04-30.81 41.26-30.81L41.26-30.81Q41.06-30.81 40.87-30.81 40.67-30.81 40.43-30.76L40.43-30.76Q40.38-29.93 40.35-29.08 40.33-28.22 40.33-27.34L40.33-27.34Q40.33-27.1 40.28-26.83 40.23-26.56 40.23-26.32L40.23-26.32Q40.18-25.68 40.16-25.1 40.13-24.51 40.13-23.88L40.13-23.88Q40.13-22.51 40.16-21.14 40.18-19.78 40.23-18.36L40.23-18.36Q40.28-17.63 40.33-16.94 40.38-16.26 40.38-15.53L40.38-15.53Q40.38-13.87 40.33-12.23 40.28-10.6 40.28-8.94L40.28-8.94Q40.28-8.4 40.23-7.93 40.18-7.47 40.18-6.93L40.18-6.93Q40.18-5.81 40.23-4.69 40.28-3.56 40.28-2.44L40.28-2.44Q40.28-1.9 40.26-1.37 40.23-0.83 40.23-0.29L40.23-0.29Q39.99 0.1 39.89 0.39 39.79 0.68 39.3 0.68L39.3 0.68Q38.96 0.59 38.99 0.46 39.01 0.34 38.91 0.24L38.91 0.24Q38.47 0.2 38.25 0.32 38.03 0.44 37.74 0.54L37.74 0.54Q37.6 0.49 37.42 0.49 37.25 0.49 37.11 0.49L37.11 0.49Q37.01 0.49 36.91 0.56 36.81 0.63 36.47 0.63L36.47 0.63Q36.18 0.68 36.13 0.54 36.08 0.39 35.84 0.39L35.84 0.39Q35.59 0.54 35.28 0.61 34.96 0.68 34.67 0.68L34.67 0.68Q34.37 0.49 34.4 0.32 34.42 0.15 34.32-0.05L34.32-0.05Q34.27-0.15 34.15-0.32 34.03-0.49 33.93-0.59L33.93-0.59Q34.03-1.27 34.08-1.81 34.13-2.34 34.13-2.98L34.13-2.98Q34.13-4.25 34.03-5.47 33.93-6.69 33.93-7.96L33.93-7.96Q33.93-8.35 34.03-8.79 34.13-9.23 34.13-9.72L34.13-9.72Q34.03-10.11 34.08-10.18 34.13-10.25 34.13-10.35L34.13-10.35Q34.13-10.64 34.1-10.94 34.08-11.23 34.08-11.52L34.08-11.52Q34.08-12.11 34.1-12.7 34.13-13.28 34.13-13.87L34.13-13.87Q34.13-14.11 34.1-14.38 34.08-14.65 34.08-14.89L34.08-14.89Q34.03-15.33 34.06-15.82 34.08-16.31 34.08-16.8L34.08-16.8Q34.08-19.14 34.01-21.44 33.93-23.73 33.93-26.07L33.93-26.07Q33.93-27.25 34.06-28.39 34.18-29.54 34.18-30.71L34.18-30.71Q34.18-30.86 34.08-31.1 33.98-31.35 33.88-31.45L33.88-31.45Q33.64-31.45 33.42-31.47 33.2-31.49 32.96-31.49L32.96-31.49Q32.42-31.49 31.93-31.35L31.93-31.35Q31-31.3 30.15-31.23 29.29-31.15 28.42-31.1L28.42-31.1Q27.83-31.15 27.71-31.13 27.59-31.1 27.44-31.1L27.44-31.1Q27.05-31.1 26.85-31.3L26.85-31.3 26.85-31.93Q26.56-32.52 26.61-32.57 26.66-32.62 26.66-32.71L26.66-32.71Q26.66-32.86 26.39-33.03 26.12-33.2 26.12-33.59L26.12-33.59Q26.07-33.98 25.93-34.18 25.78-34.38 25.78-34.57L25.78-34.57Q25.78-34.91 25.93-35.35L25.93-35.35Q26.36-35.6 26.78-35.69 27.19-35.79 27.73-35.94L27.73-35.94Q28.02-36.04 28.27-36.13 28.51-36.23 28.81-36.28L28.81-36.28Q29.15-36.33 29.49-36.33 29.83-36.33 30.17-36.38L30.17-36.38Q30.91-36.52 31.71-36.62 32.52-36.72 33.25-36.72L33.25-36.72Q33.93-36.72 34.62-36.55 35.3-36.38 35.84-36.38L35.84-36.38Q36.62-36.38 37.33-36.28 38.03-36.18 38.82-36.18L38.82-36.18Q38.91-36.18 39.13-36.11 39.35-36.04 39.65-36.04L39.65-36.04 44.38-36.04Q44.77-35.94 44.94-35.99 45.11-36.04 45.26-36.04L45.26-36.04Q45.65-36.04 45.99-35.99 46.34-35.94 46.73-35.94L46.73-35.94Q47.07-35.94 47.26-35.99L47.26-35.99Q47.65-35.94 48-35.77 48.34-35.6 48.78-35.6L48.78-35.6Q48.97-35.45 49.07-35.23 49.17-35.01 49.41-34.91ZM61.23-35.99L61.23-35.99Q61.32-35.79 61.45-35.72 61.57-35.64 61.62-35.4L61.62-35.4Q61.96-35.16 62.15-35.03 62.35-34.91 62.4-34.62L62.4-34.62Q62.84-34.28 62.91-34.18 62.98-34.08 63.03-33.94L63.03-33.94Q63.28-33.74 63.5-33.59 63.72-33.45 63.81-33.15L63.81-33.15Q64.2-32.81 64.3-32.62 64.4-32.42 64.45-32.18L64.45-32.18Q64.25-31.84 63.67-31.25 63.08-30.66 62.35-30 61.62-29.35 60.93-28.74 60.25-28.13 59.86-27.78L59.86-27.78Q59.76-27.59 59.61-27.44 59.47-27.29 59.37-27.1L59.37-27.1Q59.08-26.86 58.83-26.59 58.59-26.32 58.25-26.17L58.25-26.17Q57.76-25.49 56.88-24.83 56-24.17 55.71-23.54L55.71-23.54Q55.76-23.39 55.93-23.24 56.1-23.1 56.2-23L56.2-23Q56.59-22.61 57.12-22.29 57.66-21.97 58.05-21.58L58.05-21.58Q58.44-21.24 58.83-20.92 59.22-20.61 59.61-20.26L59.61-20.26Q59.81-20.07 60.1-19.68L60.1-19.68Q60.59-19.29 61.05-18.97 61.52-18.65 61.96-18.26L61.96-18.26Q62.89-17.48 63.76-16.67 64.64-15.87 65.62-15.09L65.62-15.09 66.01-14.65Q66.01-14.26 66.23-13.75 66.45-13.23 66.65-12.89L66.65-12.89Q66.55-12.4 66.67-12.28 66.79-12.16 66.89-12.06L66.89-12.06Q66.84-11.13 66.94-10.84L66.94-10.84Q66.11-10.11 65.4-9.5 64.69-8.89 64.16-8.3L64.16-8.3Q63.72-7.76 63.25-7.35 62.79-6.93 62.25-6.45L62.25-6.45Q61.96-6.05 61.76-5.91L61.76-5.91Q61.42-5.57 61.08-5.37L61.08-5.37Q60.49-4.83 59.93-4.35 59.37-3.86 58.83-3.37L58.83-3.37Q58.44-3.03 58.1-2.71 57.76-2.39 57.42-2L57.42-2Q57.12-1.71 56.76-1.32 56.39-0.93 56-0.68L56-0.68Q55.85-0.39 55.61-0.17 55.37 0.05 55.17 0.29L55.17 0.29Q54.83 0.49 54.54 0.68 54.24 0.88 53.85 1.07L53.85 1.07Q53.46 0.78 53.1 0.54 52.73 0.29 52.29 0.2L52.29 0.2Q52-0.05 51.85-0.29 51.7-0.54 51.31-0.63L51.31-0.63Q51.22-0.78 51.09-0.95 50.97-1.12 50.87-1.32L50.87-1.32Q50.29-1.37 49.95-2.05L49.95-2.05Q50.04-2.34 50.21-2.49 50.39-2.64 50.29-3.03L50.29-3.03Q50.58-3.52 51-3.88 51.41-4.25 51.8-4.64L51.8-4.64Q52.24-5.03 52.61-5.44 52.97-5.86 53.41-6.25L53.41-6.25Q53.66-6.49 53.9-6.71 54.15-6.93 54.44-7.18L54.44-7.18Q54.98-7.71 55.54-8.18 56.1-8.64 56.68-9.18L56.68-9.18Q57.47-9.96 58.3-10.67 59.13-11.38 59.81-12.26L59.81-12.26Q59.76-12.45 59.66-12.52 59.57-12.6 59.52-12.74L59.52-12.74Q58.74-13.48 57.98-14.18 57.22-14.89 56.34-15.43L56.34-15.43Q56.05-15.72 55.95-15.92L55.95-15.92Q55.07-16.55 54.27-17.33 53.46-18.12 52.49-18.65L52.49-18.65Q52.29-18.9 52.02-19.07 51.75-19.24 51.51-19.38L51.51-19.38Q51.36-19.63 51.19-19.8 51.02-19.97 50.78-20.07L50.78-20.07Q50.39-20.41 50.26-20.63 50.14-20.85 49.85-20.9L49.85-20.9Q49.75-21.14 49.53-21.29 49.31-21.44 49.07-21.63L49.07-21.63Q48.97-21.92 48.77-22.12L48.77-22.12Q48.73-22.51 48.82-22.68 48.92-22.85 48.97-22.95L48.97-22.95Q48.92-23.24 48.7-23.39 48.48-23.54 48.48-23.88L48.48-23.88Q48.48-24.07 48.6-24.15 48.73-24.22 48.77-24.37L48.77-24.37 48.92-25.1Q49.31-25.39 49.58-25.81 49.85-26.22 50.29-26.46L50.29-26.46Q50.78-27.2 51.51-27.69L51.51-27.69Q51.75-28.08 52.12-28.32 52.49-28.56 52.73-28.96L52.73-28.96Q53.12-29.2 53.39-29.49 53.66-29.79 54.05-30.03L54.05-30.03Q54.15-30.22 54.27-30.35 54.39-30.47 54.44-30.62L54.44-30.62Q55.76-31.88 56.76-32.81 57.76-33.74 58.83-34.67L58.83-34.67Q59.13-34.91 59.42-35.21 59.71-35.5 60.05-35.74L60.05-35.74Q60.15-35.84 60.3-35.84 60.44-35.84 60.59-35.94L60.59-35.94Q61.18-35.94 61.23-35.99ZM89.98-36.28L90.47-36.13Q91.06-36.28 91.3-36.25 91.55-36.23 91.79-36.18L91.79-36.18Q92.08-35.99 92.28-35.69L92.28-35.69Q92.28-34.67 92.25-33.67 92.23-32.67 92.23-31.64L92.23-31.64Q92.23-29.79 92.28-27.93 92.33-26.07 92.28-24.22L92.28-24.22Q92.38-23.78 92.33-23.73 92.28-23.68 92.28-23.58L92.28-23.58Q92.28-21.73 92.38-19.92 92.47-18.12 92.47-16.26L92.47-16.26 92.47-9.77Q92.47-7.67 92.6-5.62 92.72-3.56 92.72-1.51L92.72-1.51Q92.72-1.32 92.47-0.98L92.47-0.98Q92.38-0.59 92.18-0.34L92.18-0.34Q91.74-0.29 91.35-0.49L91.35-0.49Q91.15-0.49 91.08-0.37 91.01-0.24 90.86-0.15L90.86-0.15Q90.47-0.15 90.23 0.05 89.98 0.24 89.64 0.24L89.64 0.24Q89.35 0.24 89.08 0.17 88.81 0.1 88.47 0.1L88.47 0.1Q88.37 0.1 88.18 0.27 87.98 0.44 87.88 0.49L87.88 0.49Q87.64 0.49 87.44 0.56 87.25 0.63 87 0.63L87 0.63Q86.76 0.44 86.78 0.05 86.81-0.34 86.47-0.44L86.47-0.44Q86.47-0.68 86.49-0.98 86.52-1.27 86.52-1.56L86.52-1.56Q86.52-3.47 86.42-5.4 86.32-7.32 86.27-9.23L86.27-9.23Q86.22-10.06 86.25-10.86 86.27-11.67 86.27-12.5L86.27-12.5Q86.27-12.94 86.27-13.38 86.27-13.82 86.17-14.21L86.17-14.21Q85.88-14.26 85.66-14.14 85.44-14.01 85.2-14.01L85.2-14.01Q84.17-13.67 83.83-13.33L83.83-13.33Q83.54-13.33 83.34-13.23 83.15-13.13 82.9-13.04L82.9-13.04Q82.51-12.94 82.15-12.87 81.78-12.79 81.39-12.65L81.39-12.65Q81.14-12.55 80.9-12.45 80.66-12.35 80.41-12.26L80.41-12.26Q79.88-12.06 79.34-11.89 78.8-11.72 78.26-11.52L78.26-11.52Q77.73-11.43 77.34-11.23 76.95-11.04 76.56-10.84L76.56-10.84Q76.21-8.54 76.19-6.47 76.16-4.39 76.31-2.34L76.31-2.34Q76.21-2.05 76.21-1.68 76.21-1.32 76.07-1.07L76.07-1.07Q75.53-0.93 75.36-1.05 75.19-1.17 74.99-1.27L74.99-1.27Q74.8-1.22 74.68-1.07 74.55-0.93 74.46-0.83L74.46-0.83Q74.06-0.83 73.85-0.66 73.63-0.49 73.43-0.39L73.43-0.39Q73.28-0.34 73.14-0.39 72.99-0.44 72.8-0.34L72.8-0.34Q72.31-0.34 72.33-0.46 72.36-0.59 72.21-0.59L72.21-0.59Q72.01-0.59 71.94-0.42 71.87-0.24 71.67-0.15L71.67-0.15Q71.48-0.05 71.23-0.02 70.99 0 70.74 0.1L70.74 0.1Q70.5-0.15 70.5-0.44 70.5-0.73 70.26-0.98L70.26-0.98Q70.16-1.66 70.13-2.32 70.11-2.98 69.96-3.66L69.96-3.66Q70.06-5.03 70.04-5.86 70.01-6.69 70.01-7.57L70.01-7.57Q70.01-8.35 69.96-9.13 69.91-9.91 69.87-10.69L69.87-10.69Q69.77-12.11 69.69-13.57 69.62-15.04 69.62-16.5L69.62-16.5Q69.62-17.72 69.74-18.9 69.87-20.07 69.87-21.29L69.87-21.29Q69.87-22.12 69.89-22.92 69.91-23.73 69.91-24.56L69.91-24.56Q69.91-25.24 69.89-25.9 69.87-26.56 69.87-27.2L69.87-27.2Q69.87-27.93 69.96-28.64 70.06-29.35 70.06-30.03L70.06-30.03Q70.06-30.86 69.96-31.67 69.87-32.47 69.87-33.3L69.87-33.3Q69.87-33.54 69.91-33.76 69.96-33.98 69.96-34.23L69.96-34.23Q69.91-34.77 70.01-34.89 70.11-35.01 70.21-35.21L70.21-35.21Q70.45-35.25 70.74-35.35 71.04-35.45 71.28-35.35L71.28-35.35Q71.57-35.64 72.09-35.64 72.6-35.64 72.84-35.99L72.84-35.99Q73.19-35.94 73.31-35.96 73.43-35.99 73.53-35.99L73.53-35.99Q73.97-35.89 73.99-36.01 74.02-36.13 74.16-36.13L74.16-36.13Q74.41-36.13 74.92-36.11 75.43-36.08 75.63-35.89L75.63-35.89Q76.12-33.3 76.16-30.62 76.21-27.93 76.21-25.29L76.21-25.29Q76.21-24.61 76.26-23.9 76.31-23.19 76.21-22.51L76.21-22.51Q76.21-22.22 76.16-21.95 76.12-21.68 76.12-21.39L76.12-21.39Q76.12-20.56 76.02-19.65 75.92-18.75 75.92-17.92L75.92-17.92Q76.51-17.58 76.92-17.7 77.34-17.82 77.73-17.97L77.73-17.97Q78.22-18.12 78.63-18.29 79.05-18.46 79.48-18.6L79.48-18.6Q79.88-18.8 80.34-18.92 80.8-19.04 81.19-19.14L81.19-19.14Q82.46-19.58 83.68-20.21 84.9-20.85 86.17-21.24L86.17-21.24Q86.08-23.93 86.08-26.59 86.08-29.25 86.08-31.88L86.08-31.88Q86.08-32.62 86.08-33.4 86.08-34.18 86.17-34.91L86.17-34.91Q86.22-35.11 86.3-35.23 86.37-35.35 86.37-35.6L86.37-35.6Q86.52-35.84 86.71-35.94 86.91-36.04 87-36.23L87-36.23Q87.1-36.13 87.22-36.06 87.35-35.99 87.49-35.94L87.49-35.94Q87.88-36.04 87.96-36.08 88.03-36.13 88.13-36.18L88.13-36.18Q88.37-36.28 88.76-36.28 89.15-36.28 89.4-36.28L89.4-36.28 89.98-36.28ZM122.16-19.38L122.16-19.38Q122.06-19.19 121.96-19.02 121.87-18.85 121.82-18.65L121.82-18.65Q122.01-18.46 122.18-18.24 122.35-18.02 122.35-17.77L122.35-17.77Q122.35-17.58 122.28-17.41 122.21-17.24 122.26-17.09L122.26-17.09Q122.06-16.75 121.84-16.46 121.62-16.16 121.52-15.82L121.52-15.82Q121.33-15.63 121.21-15.43 121.08-15.23 120.99-15.04L120.99-15.04Q120.74-14.94 120.67-14.72 120.6-14.5 120.4-14.36L120.4-14.36Q120.35-14.16 119.91-13.43 119.47-12.7 118.94-11.87 118.4-11.04 117.91-10.25 117.42-9.47 117.23-9.23L117.23-9.23Q117.13-8.98 117.01-8.84 116.88-8.69 116.74-8.5L116.74-8.5Q116.64-8.35 116.59-8.18 116.54-8.01 116.45-7.91L116.45-7.91Q116.35-7.71 116.23-7.57 116.1-7.42 116.01-7.18L116.01-7.18Q115.52-6.54 115.03-5.66 114.54-4.79 114.1-4.1L114.1-4.1Q113.86-3.71 113.64-3.32 113.42-2.93 113.17-2.54L113.17-2.54Q112.93-2.15 112.69-1.81 112.44-1.46 112.2-1.07L112.2-1.07Q111.81-0.78 111.51-0.37 111.22 0.05 110.83 0.34L110.83 0.34Q110.2 0.34 110.05-0.24L110.05-0.24Q109.41-0.39 109.41-0.24 109.41-0.1 109.41 0L109.41 0Q109.22 0.1 109.15 0.29 109.07 0.49 108.88 0.59L108.88 0.59Q108.49 0.49 108.22 0.27 107.95 0.05 107.46 0.1L107.46 0.1Q107.27-0.2 107.02-0.42 106.78-0.63 106.58-0.88L106.58-0.88Q106.48-1.17 106.31-1.37 106.14-1.56 106-1.76L106-1.76Q105.85-2 105.7-2.2 105.56-2.39 105.41-2.59L105.41-2.59Q105.07-3.03 104.75-3.44 104.43-3.86 104.19-4.3L104.19-4.3Q103.8-4.88 103.43-5.49 103.07-6.1 102.68-6.69L102.68-6.69Q102.48-6.98 102.28-7.28 102.09-7.57 101.94-7.86L101.94-7.86Q101.85-8.11 101.67-8.45 101.5-8.79 101.26-8.89L101.26-8.89Q101.16-9.28 100.92-9.47 100.67-9.67 100.43-9.96L100.43-9.96Q100.09-10.35 99.79-10.82 99.5-11.28 99.21-11.77L99.21-11.77Q98.23-13.13 97.38-14.45 96.52-15.77 95.69-17.19L95.69-17.19Q95.94-17.97 95.94-18.36 95.94-18.75 96.18-18.99L96.18-18.99Q96.18-19.19 96.28-19.58L96.28-19.58Q96.91-20.65 97.5-21.53L97.5-21.53Q98.04-22.36 98.26-22.9 98.48-23.44 98.72-24.02L98.72-24.02Q98.96-24.17 99.11-24.39 99.26-24.61 99.5-24.8L99.5-24.8Q99.6-25.34 99.94-25.71 100.28-26.07 100.38-26.61L100.38-26.61Q100.82-26.95 100.87-27.39L100.87-27.39Q101.5-27.83 101.65-28.56L101.65-28.56Q102.04-28.96 102.31-29.44 102.58-29.93 102.82-30.47L102.82-30.47Q103.41-30.96 103.75-31.74L103.75-31.74Q104.04-31.93 104.19-32.28 104.34-32.62 104.58-32.86L104.58-32.86Q104.97-33.5 105.19-33.91 105.41-34.33 105.65-34.77L105.65-34.77Q106-34.77 106.09-35.01 106.19-35.25 106.48-35.21L106.48-35.21Q106.48-35.64 106.73-35.99L106.73-35.99Q106.83-36.04 107.02-36.11 107.22-36.18 107.22-36.28L107.22-36.28Q107.12-36.87 107.27-36.96 107.41-37.06 107.51-37.16L107.51-37.16Q108.05-37.06 108.24-37.01 108.44-36.96 108.88-36.67L108.88-36.67Q109.37-36.67 109.56-36.47 109.76-36.28 110-36.18L110-36.18Q110.2-35.99 110.32-35.79 110.44-35.6 110.68-35.5L110.68-35.5Q111.07-34.96 111.51-34.33 111.95-33.69 112.34-33.15L112.34-33.15Q112.88-32.42 113.44-31.76 114-31.1 114.49-30.32L114.49-30.32Q114.64-30.08 115.03-29.47 115.42-28.86 115.91-28.17 116.4-27.49 116.79-26.93 117.18-26.37 117.32-26.27L117.32-26.27Q117.47-26.03 117.96-25.34 118.45-24.66 119.01-23.9 119.57-23.14 120.11-22.46 120.64-21.78 120.84-21.58L120.84-21.58Q121.38-20.85 121.65-20.39 121.91-19.92 122.16-19.38ZM110.98-10.21L110.98-10.21Q111.51-10.94 111.81-11.52 112.1-12.11 112.39-12.7L112.39-12.7Q112.88-13.28 112.98-13.53 113.08-13.77 113.22-14.01L113.22-14.01Q113.61-14.6 114.03-15.19 114.44-15.77 114.69-16.46L114.69-16.46Q114.98-16.65 115.13-16.94 115.27-17.24 115.57-17.48L115.57-17.48Q115.27-18.51 114.88-19.07 114.49-19.63 114.1-20.17L114.1-20.17Q113.95-20.41 113.81-20.65 113.66-20.9 113.52-21.14L113.52-21.14Q113.32-21.29 113.2-21.44 113.08-21.58 112.93-21.73L112.93-21.73Q112.83-21.97 112.64-22.36L112.64-22.36Q112.44-22.61 112.25-22.8 112.05-23 111.9-23.29L111.9-23.29Q111.71-23.49 111.42-23.83 111.12-24.17 110.81-24.58 110.49-25 110.24-25.37 110-25.73 109.85-25.98L109.85-25.98Q109.76-26.22 109.68-26.39 109.61-26.56 109.51-26.76L109.51-26.76Q109.27-27.1 109.02-27.37 108.78-27.64 108.53-27.98L108.53-27.98Q108.39-27.88 108.27-27.86 108.14-27.83 108.05-27.73L108.05-27.73Q107.7-27.1 107.29-26.56 106.87-26.03 106.48-25.39L106.48-25.39Q106.14-24.8 105.8-24.19 105.46-23.58 105.12-23L105.12-23Q104.87-22.66 104.65-22.34 104.43-22.02 104.19-21.63L104.19-21.63Q103.95-21.29 103.77-20.92 103.6-20.56 103.36-20.21L103.36-20.21Q102.97-19.73 102.72-19.34 102.48-18.95 102.24-18.41L102.24-18.41Q102.38-18.12 102.7-17.6 103.02-17.09 103.36-16.58 103.7-16.06 103.97-15.63 104.24-15.19 104.29-15.04L104.29-15.04Q104.68-14.7 104.92-14.28 105.17-13.87 105.56-13.48L105.56-13.48Q105.75-13.09 106-12.79 106.24-12.5 106.48-12.16L106.48-12.16Q106.73-11.82 107.12-11.16 107.51-10.5 107.9-9.81 108.29-9.13 108.68-8.54 109.07-7.96 109.32-7.81L109.32-7.81Q109.8-8.35 110.12-9.01 110.44-9.67 110.98-10.21ZM143 0.59L143 0.59Q142.81 0.39 142.81 0.05L142.81 0.05Q142.81-0.2 142.83-0.37 142.86-0.54 142.9-0.78L142.9-0.78Q143.15-1.9 143.15-3.05 143.15-4.2 143.25-5.32L143.25-5.32Q143.3-6.01 143.32-6.69 143.34-7.37 143.34-8.06L143.34-8.06Q143.34-12.11 143.1-16.14 142.86-20.17 142.86-24.27L142.86-24.27Q142.86-27.1 142.95-29.96 143.05-32.81 143.1-35.69L143.1-35.69Q143.54-35.94 144.17-35.89 144.81-35.84 145.2-36.33L145.2-36.33Q145.44-36.38 145.69-36.35 145.93-36.33 146.18-36.33L146.18-36.33Q146.71-36.33 147.2-36.67 147.69-37.01 148.28-37.26L148.28-37.26Q148.57-37.16 148.69-37.18 148.81-37.21 148.96-37.21L148.96-37.21Q149.11-37.21 149.59-36.87 150.08-36.52 150.67-36.08 151.25-35.64 151.77-35.25 152.28-34.86 152.43-34.77L152.43-34.77Q153.65-33.84 154.6-32.74 155.55-31.64 156.48-30.52L156.48-30.52Q157.36-29.39 158.38-28.25 159.41-27.1 160.39-26.12L160.39-26.12Q160.73-25.73 161.09-25.44 161.46-25.15 161.8-24.76L161.8-24.76Q161.95-24.56 162.07-24.34 162.19-24.12 162.34-23.88L162.34-23.88Q162.63-23.54 163.02-23.29 163.41-23.05 163.75-22.71L163.75-22.71Q164-22.51 164.49-21.92 164.98-21.34 164.98-21.04L164.98-21.04Q164.98-20.85 164.88-20.7 164.78-20.56 164.68-20.36L164.68-20.36Q164.63-20.21 164.63-19.92 164.63-19.63 164.58-19.53L164.58-19.53Q164.1-19.14 164.05-19.04 164-18.95 163.9-18.85L163.9-18.85Q163.75-18.65 163.53-18.53 163.32-18.41 163.22-18.16L163.22-18.16Q163.12-18.02 163.14-17.87 163.17-17.72 163.07-17.53L163.07-17.53Q162.83-16.99 162.29-16.5 161.75-16.02 161.36-15.43L161.36-15.43Q160.82-14.55 160.29-13.67 159.75-12.79 159.07-11.96L159.07-11.96Q158.77-11.57 158.46-11.21 158.14-10.84 157.85-10.45L157.85-10.45Q157.6-10.16 157.41-9.84 157.21-9.52 156.97-9.13L156.97-9.13Q156.43-8.45 155.94-7.79 155.45-7.13 154.92-6.45L154.92-6.45Q154.33-5.62 153.65-4.81 152.96-4 152.43-3.17L152.43-3.17Q151.89-2.29 151.3-1.56 150.72-0.83 150.03-0.15L150.03-0.15Q149.84 0 149.55 0.29 149.25 0.59 148.96 0.59L148.96 0.59Q148.76 0.59 148.64 0.44 148.52 0.29 148.28 0.29L148.28 0.29Q148.23 0.29 147.98 0.34 147.74 0.39 147.4 0.44L147.4 0.44 146.52 0.54Q145.74 0.93 145.4 0.9 145.05 0.88 144.71 0.93L144.71 0.93Q144.52 0.98 144.39 1.07 144.27 1.17 144.13 1.17L144.13 1.17Q143.78 1.17 143.59 0.85 143.39 0.54 143 0.59ZM157.65-20.51L157.65-20.51Q157.65-20.75 157.19-21.19 156.72-21.63 156.48-21.83L156.48-21.83Q156.14-22.12 155.67-22.39 155.21-22.66 154.92-23L154.92-23Q154.67-23.29 154.45-23.61 154.23-23.93 153.99-24.22L153.99-24.22Q153.11-25.2 152.21-26.17 151.3-27.15 150.62-28.32L150.62-28.32Q150.18-28.61 149.79-29 149.4-29.39 148.86-29.64L148.86-29.64Q148.76-29.35 148.79-29.03 148.81-28.71 148.81-28.42L148.81-28.42Q148.81-27.29 148.72-26.22 148.62-25.15 148.62-24.07L148.62-24.07Q148.62-21.44 148.74-18.87 148.86-16.31 148.86-13.72L148.86-13.72Q148.86-12.74 148.89-11.77 148.91-10.79 149.06-9.81L149.06-9.81Q148.96-9.52 148.96-9.28L148.96-9.28Q148.96-9.03 149.06-8.64L149.06-8.64Q149.45-8.89 149.72-9.25 149.99-9.62 150.23-9.96L150.23-9.96Q151.06-11.04 151.86-12.13 152.67-13.23 153.5-14.36L153.5-14.36Q154.04-15.09 154.6-15.8 155.16-16.5 155.7-17.29L155.7-17.29Q155.84-17.48 156.16-17.97 156.48-18.46 156.8-18.97 157.11-19.48 157.38-19.92 157.65-20.36 157.65-20.51ZM174.88-12.79L174.88-12.79Q174.98-12.55 175.59-11.77 176.2-10.99 176.98-10.06 177.77-9.13 178.47-8.28 179.18-7.42 179.47-7.03L179.47-7.03Q180.01-6.35 180.52-5.69 181.04-5.03 181.48-4.3L181.48-4.3 182.36-2.83Q182.75-2.34 183.06-2 183.38-1.66 183.58-1.07L183.58-1.07Q183.67-0.68 183.67-0.54L183.67-0.54Q183.67-0.2 183.43-0.05L183.43-0.05Q183.04-0.05 183.01 0.07 182.99 0.2 182.8 0.29L182.8 0.29Q182.6 0.39 182.18 0.42 181.77 0.44 181.53 0.44L181.53 0.44Q181.09 0.44 180.43 0.42 179.77 0.39 179.38 0.54L179.38 0.54Q179.28 0.59 179.08 0.68 178.89 0.78 178.79 0.78L178.79 0.78Q178.4 0.78 178.23 0.66 178.06 0.54 177.77 0.49L177.77 0.49Q177.38 0.05 177.11-0.42 176.84-0.88 176.5-1.37L176.5-1.37Q176.15-1.71 175.81-1.98 175.47-2.25 175.23-2.59L175.23-2.59Q174.49-3.66 173.71-4.69 172.93-5.71 172.1-6.69L172.1-6.69Q171.71-7.23 171.27-7.67 170.83-8.11 170.44-8.64L170.44-8.64Q170.05-9.13 169.71-9.69 169.37-10.25 169.03-10.79L169.03-10.79Q168.73-11.23 168.24-11.94 167.76-12.65 167.17-13.35 166.58-14.06 166-14.7 165.41-15.33 165.02-15.67L165.02-15.67Q164.97-15.97 164.78-16.14 164.58-16.31 164.34-16.46L164.34-16.46Q164.24-16.7 164.12-16.92 164-17.14 164-17.38L164-17.38Q164-17.72 164.14-18.02L164.14-18.02Q164.24-18.21 164.26-18.38 164.29-18.55 164.39-18.75L164.39-18.75Q164.63-19.29 165.05-19.8 165.46-20.31 165.71-20.9L165.71-20.9Q165.8-21.04 165.8-21.22 165.8-21.39 165.9-21.53L165.9-21.53Q166-21.92 166.32-22.19 166.63-22.46 166.83-22.8L166.83-22.8Q167.07-23.19 167.29-23.61 167.51-24.02 167.76-24.51L167.76-24.51Q168.49-25.73 169.29-26.88 170.1-28.03 170.93-29.2L170.93-29.2Q171.56-30.18 172.17-31.08 172.79-31.98 173.42-32.91L173.42-32.91Q173.76-33.35 174.15-33.94 174.54-34.52 175.01-35.11 175.47-35.69 175.96-36.18 176.45-36.67 176.94-36.96L176.94-36.96Q177.67-37.01 177.91-36.65 178.16-36.28 178.64-36.28L178.64-36.28Q179.28-36.13 179.47-35.89 179.67-35.64 179.91-35.4L179.91-35.4Q180.6-35.4 181.01-35.16 181.43-34.91 181.82-34.42L181.82-34.42Q181.67-33.89 181.38-33.47 181.09-33.06 180.84-32.62L180.84-32.62Q180.45-32.42 180.28-32.08 180.11-31.74 179.77-31.54L179.77-31.54Q179.28-30.71 178.74-29.96 178.21-29.2 177.67-28.47L177.67-28.47Q177.38-28.03 177.06-27.69 176.74-27.34 176.5-26.95L176.5-26.95Q176.4-26.81 176.33-26.64 176.25-26.46 176.15-26.32L176.15-26.32Q175.57-25.39 174.88-24.58 174.2-23.78 173.62-22.8L173.62-22.8Q173.42-22.46 173.3-22.09 173.18-21.73 172.98-21.39L172.98-21.39Q172.79-21.09 172.42-20.61 172.05-20.12 171.71-19.56 171.37-18.99 171.1-18.48 170.83-17.97 170.83-17.63L170.83-17.63Q170.88-17.38 171.44-16.67 172-15.97 172.71-15.16 173.42-14.36 174.05-13.65 174.69-12.94 174.88-12.79ZM178.11-21.68L178.11-21.68Q178.45-20.95 178.84-20.41L178.84-20.41Q178.99-20.21 179.18-20.07 179.38-19.92 179.47-19.68L179.47-19.68Q179.57-19.58 179.67-19.26 179.77-18.95 179.87-18.8L179.87-18.8Q180.01-18.41 180.45-17.92 180.89-17.43 180.89-17.04L180.89-17.04Q180.89-16.8 180.79-16.5 180.7-16.21 180.65-15.97L180.65-15.97Q180.6-15.67 180.6-15.36 180.6-15.04 180.4-14.79L180.4-14.79Q180.16-14.55 179.87-14.5 179.57-14.45 179.33-14.26L179.33-14.26Q179.23-14.16 179.04-13.92 178.84-13.67 178.64-13.38 178.45-13.09 178.28-12.82 178.11-12.55 178.11-12.4L178.11-12.4Q177.52-12.35 177.35-12.38 177.18-12.4 176.98-12.35L176.98-12.35Q176.74-12.6 176.47-12.77 176.2-12.94 175.81-13.09L175.81-13.09Q175.71-13.48 175.37-13.99 175.03-14.5 174.79-14.84L174.79-14.84 174.45-15.28Q173.71-16.31 173.1-17.26 172.49-18.21 172.2-19.38L172.2-19.38Q173.13-20.07 173.64-20.41 174.15-20.75 174.74-21.04 175.32-21.34 175.89-21.61 176.45-21.88 176.94-22.27L176.94-22.27Q177.33-22.27 177.47-22.22 177.62-22.17 177.67-22.12 177.72-22.07 177.79-21.95 177.86-21.83 178.11-21.68ZM223.37-27.49L223.37-27.49Q223.37-26.95 223.59-26.59 223.81-26.22 223.81-25.93L223.81-25.93Q223.71-25.44 224-24.78 224.29-24.12 224.29-23.44L224.29-23.44Q224.2-23.14 223.54-22.68 222.88-22.22 222.07-21.68 221.27-21.14 220.51-20.63 219.75-20.12 219.46-19.82L219.46-19.82Q219.7-19.43 220.07-19.19 220.44-18.95 220.78-18.7L220.78-18.7Q221.07-18.46 221.63-17.99 222.19-17.53 222.8-16.99 223.42-16.46 223.93-15.97 224.44-15.48 224.59-15.23L224.59-15.23Q224.68-15.19 224.76-14.89 224.83-14.6 224.88-14.23 224.93-13.87 224.95-13.53 224.98-13.18 224.98-13.09L224.98-13.09Q224.93-12.55 225-12.3 225.08-12.06 225.15-11.79 225.22-11.52 225.27-11.28 225.32-11.04 225.32-11.04L225.32-11.04Q225.32-10.74 225.05-10.5 224.78-10.25 224.54-10.06L224.54-10.06Q224.29-9.86 224.07-9.67 223.85-9.47 223.61-9.23L223.61-9.23Q223.32-8.98 222.95-8.76 222.58-8.54 222.29-8.3L222.29-8.3Q222.1-8.2 221.95-8.03 221.8-7.86 221.66-7.76L221.66-7.76Q221.22-7.37 220.68-7.01 220.14-6.64 219.66-6.35L219.66-6.35Q219.12-6.01 218.63-5.64 218.14-5.27 217.6-4.88L217.6-4.88Q216.87-4.44 216.16-4.03 215.46-3.61 214.77-3.17L214.77-3.17Q214.43-2.93 214.11-2.69 213.8-2.44 213.45-2.25L213.45-2.25Q212.48-1.71 211.5-1.12 210.52-0.54 209.6 0.15L209.6 0.15Q208.82 0.34 208.47 0.46 208.13 0.59 207.79 0.59L207.79 0.59Q207.5 0.59 207.42 0.37 207.35 0.15 207.16 0.15L207.16 0.15Q206.42 0.24 206.35 0.17 206.28 0.1 206.13 0L206.13 0Q205.4 0.1 204.91 0L204.91 0Q204.76-0.24 204.71-0.61 204.67-0.98 204.42-1.22L204.42-1.22Q204.52-1.71 204.45-2.15 204.37-2.59 204.47-3.03L204.47-3.03Q204.32-3.61 204.32-4.1L204.32-4.1Q204.32-4.74 204.47-5.42L204.47-5.42Q204.32-5.86 204.32-6.3L204.32-6.3Q204.32-6.69 204.37-7.08 204.42-7.47 204.42-7.86L204.42-7.86Q204.42-8.35 204.23-8.74L204.23-8.74Q204.23-9.62 204.2-10.47 204.18-11.33 204.18-12.21L204.18-12.21Q204.18-12.6 204.18-12.99 204.18-13.38 204.23-13.82L204.23-13.82Q204.18-14.06 204.18-14.55L204.18-14.55Q204.18-14.84 204.27-15.06 204.37-15.28 204.37-15.53L204.37-15.53Q204.37-16.06 204.3-16.55 204.23-17.04 204.23-17.58L204.23-17.58Q204.23-18.07 204.3-18.51 204.37-18.95 204.37-19.43L204.37-19.43Q204.23-19.63 204.18-19.87 204.13-20.12 204.13-20.36L204.13-20.36Q204.13-20.56 204.23-20.95L204.23-20.95Q204.23-21.34 204.18-21.78 204.13-22.22 204.13-22.61L204.13-22.61Q204.13-22.8 204.15-22.95 204.18-23.1 204.23-23.29L204.23-23.29Q204.13-23.63 204.13-23.97 204.13-24.32 204.13-24.66L204.13-24.66Q204.13-25.1 204.18-25.56 204.23-26.03 204.23-26.46L204.23-26.46Q204.18-27.2 204.25-27.61 204.32-28.03 204.37-28.47L204.37-28.47 204.37-31.25Q204.37-31.64 204.27-32.1 204.18-32.57 204.18-33.01L204.18-33.01Q204.18-33.25 204.23-33.74 204.27-34.23 204.37-34.47L204.37-34.47Q205.06-35.5 205.98-35.64L205.98-35.64Q206.18-35.74 206.28-35.91 206.37-36.08 206.72-36.08L206.72-36.08Q207.3-36.57 207.5-36.84 207.69-37.11 207.99-37.35L207.99-37.35Q208.13-37.35 208.25-37.43 208.38-37.5 208.57-37.5L208.57-37.5Q208.91-37.4 209.13-37.3 209.35-37.21 209.6-37.16L209.6-37.16Q210.57-36.43 211.53-35.72 212.48-35.01 213.45-34.23L213.45-34.23Q213.89-33.84 214.31-33.45 214.72-33.06 215.16-32.71L215.16-32.71Q215.41-32.57 215.7-32.42 215.99-32.28 216.24-32.08L216.24-32.08Q216.77-31.74 217.31-31.37 217.85-31.01 218.39-30.66L218.39-30.66 221.9-28.47Q222.29-28.22 222.66-27.98 223.02-27.73 223.37-27.49ZM216.38-25.39L216.38-25.39Q215.65-25.73 214.99-26.22 214.33-26.71 213.6-26.95L213.6-26.95Q213.21-27.34 212.77-27.49 212.33-27.64 211.94-27.93L211.94-27.93Q211.5-28.32 211.16-28.61 210.82-28.91 210.28-29.15L210.28-29.15Q210.04-27.64 209.91-26.2 209.79-24.76 209.79-23.29L209.79-23.29Q209.79-21.78 210.08-20.41L210.08-20.41Q210.62-20.65 211.11-20.95 211.6-21.24 212.09-21.53L212.09-21.53Q212.28-21.63 212.45-21.73 212.62-21.83 212.87-21.92L212.87-21.92Q213.11-22.12 213.36-22.31 213.6-22.51 213.84-22.66L213.84-22.66Q214.38-23.05 214.89-23.36 215.41-23.68 215.94-24.07L215.94-24.07Q216.19-24.27 216.48-24.39 216.77-24.51 217.07-24.76L217.07-24.76Q217.02-24.95 216.75-25.07 216.48-25.2 216.38-25.39ZM214.97-16.26L214.97-16.26Q214.82-16.26 214.67-16.33 214.53-16.41 214.33-16.41L214.33-16.41Q213.75-16.02 213.23-15.75 212.72-15.48 212.18-15.14L212.18-15.14Q211.94-14.99 211.7-14.79 211.45-14.6 211.21-14.5L211.21-14.5Q210.57-14.11 210.23-13.84 209.89-13.57 209.69-13.18L209.69-13.18Q209.79-11.82 209.77-10.45 209.74-9.08 209.74-7.67L209.74-7.67Q209.74-7.42 209.89-7.13L209.89-7.13Q210.33-7.18 211.45-7.79 212.58-8.4 213.82-9.18 215.07-9.96 216.21-10.69 217.36-11.43 217.9-11.77L217.9-11.77Q218.29-11.87 218.8-12.16 219.31-12.45 219.41-12.84L219.41-12.84Q218.48-13.92 217.26-14.62 216.04-15.33 214.97-16.26ZM250.76-4.69L250.76-4.69Q250.71-3.96 251.07-3.59 251.44-3.22 251.68-2.69L251.68-2.69Q251.59-2 251.83-1.61L251.83-1.61Q251.68-1.32 251.54-0.95 251.39-0.59 251.1-0.34L251.1-0.34Q250.32 0 250.17 0.24 250.02 0.49 249.58 0.49L249.58 0.49Q249.34 0.73 249.05 1 248.75 1.27 248.51 1.51L248.51 1.51Q248.27 1.42 248.17 1.27 248.07 1.12 247.88 0.88L247.88 0.88Q247.39 0.73 247 0.37 246.61 0 246.31-0.46 246.02-0.93 245.75-1.44 245.48-1.95 245.29-2.39L245.29-2.39Q244.6-3.66 243.9-4.96 243.19-6.25 242.46-7.52L242.46-7.52Q242.06-8.15 241.7-8.81 241.33-9.47 240.94-10.16L240.94-10.16Q240.84-10.25 240.75-10.38 240.65-10.5 240.55-10.64L240.55-10.64Q240.21-11.13 240.04-11.74 239.87-12.35 239.33-12.74L239.33-12.74Q238.4-12.84 237.65-12.48 236.89-12.11 236.3-11.52L236.3-11.52Q236.35-11.18 236.35-10.89 236.35-10.6 236.35-10.3L236.35-10.3Q236.35-9.18 236.25-8.15 236.16-7.13 236.16-6.01L236.16-6.01Q236.16-5.52 236.21-5 236.25-4.49 236.35-4L236.35-4Q236.21-3.47 236.21-2.83L236.21-2.83Q236.21-2.49 236.28-2.2 236.35-1.9 236.35-1.56L236.35-1.56Q236.35-1.07 236.03-0.9 235.72-0.73 235.81-0.29L235.81-0.29Q235.23-0.05 234.69 0.2 234.15 0.44 233.57 0.54L233.57 0.54Q233.32 0.59 233.08 0.56 232.84 0.54 232.64 0.63L232.64 0.63Q232.4 0.73 232.25 1 232.1 1.27 231.86 1.27L231.86 1.27Q231.57 1.27 231.52 1.05 231.47 0.83 231.32 0.68L231.32 0.68Q231.08 0.59 230.93 0.59 230.79 0.59 230.64 0.44L230.64 0.44Q230.69 0 230.44-0.22 230.2-0.44 230.2-1.12L230.2-1.12Q230.2-1.66 230.27-2.15 230.35-2.64 230.35-3.17L230.35-3.17Q230.35-3.61 230.22-3.98 230.1-4.35 230-4.79L230-4.79Q229.96-4.98 230-5.18 230.05-5.37 230.05-5.57L230.05-5.57Q230.05-6.45 229.98-7.35 229.91-8.25 229.91-9.13L229.91-9.13Q229.91-9.47 229.91-9.77 229.91-10.06 229.96-10.35L229.96-10.35Q230.05-10.64 230.13-10.84 230.2-11.04 230.2-11.33L230.2-11.33Q230.2-12.26 230-13.16 229.81-14.06 229.81-14.94L229.81-14.94Q229.81-15.43 229.83-15.94 229.86-16.46 229.86-16.94L229.86-16.94Q229.86-18.36 229.81-19.73 229.76-21.09 229.76-22.46L229.76-22.46Q229.76-23.44 229.81-24.39 229.86-25.34 229.86-26.32L229.86-26.32Q229.86-27.54 229.76-28.74 229.66-29.93 229.66-31.2L229.66-31.2Q229.66-31.64 229.61-31.79 229.56-31.93 229.47-31.96 229.37-31.98 229.25-32.01 229.13-32.03 229.03-32.18L229.03-32.18Q229.03-32.47 229.27-32.59 229.52-32.71 229.52-33.4L229.52-33.4Q229.52-33.79 229.44-34.18 229.37-34.57 229.37-34.96L229.37-34.96Q229.37-35.55 229.61-36.13 229.86-36.72 230.05-37.26L230.05-37.26Q230.64-37.3 230.86-37.26 231.08-37.21 231.32-37.3L231.32-37.3Q231.47-36.77 231.96-36.74 232.45-36.72 232.84-36.62L232.84-36.62Q233.28-36.57 233.69-36.4 234.11-36.23 234.5-36.23L234.5-36.23Q234.59-35.94 234.91-35.82 235.23-35.69 235.57-35.6L235.57-35.6Q235.96-35.64 236.18-35.94 236.4-36.23 236.79-36.23L236.79-36.23Q237.08-36.23 237.48-35.82 237.87-35.4 238.06-35.16L238.06-35.16Q238.26-35.01 238.79-34.52 239.33-34.03 239.97-33.52 240.6-33.01 241.14-32.54 241.67-32.08 241.82-32.03L241.82-32.03Q243.82-30.03 245.56-28.39 247.29-26.76 249.34-25.44L249.34-25.44Q249.39-25.29 249.46-25.2 249.54-25.1 249.63-24.95L249.63-24.95Q249.63-24.56 249.49-24.37 249.34-24.17 249.34-23.88L249.34-23.88Q249.34-23.73 249.41-23.58 249.49-23.44 249.49-23.29L249.49-23.29Q249.54-23.1 249.51-22.92 249.49-22.75 249.49-22.56L249.49-22.56Q249.49-22.07 249.8-21.68 250.12-21.29 250.12-20.8L250.12-20.8Q250.02-20.36 249.73-20.26 249.44-20.17 249.24-20.02L249.24-20.02Q249.14-19.92 249.07-19.78 249-19.63 248.9-19.53L248.9-19.53Q247.83-19.04 247.34-18.63 246.85-18.21 246.31-17.82L246.31-17.82Q246.17-17.72 245.82-17.5 245.48-17.29 245.14-17.07 244.8-16.85 244.53-16.6 244.26-16.36 244.26-16.21L244.26-16.21Q244.26-15.87 244.68-15.26 245.09-14.65 245.29-14.31L245.29-14.31Q245.82-13.43 246.26-12.57 246.7-11.72 247.24-10.89L247.24-10.89Q248.22-9.38 249.07-7.81 249.93-6.25 250.76-4.69ZM242.8-22.85L242.8-22.85Q241.67-24.27 240.38-25.42 239.09-26.56 237.91-27.83L237.91-27.83 237.38-27.93Q237.08-28.42 236.72-28.78 236.35-29.15 235.96-29.54L235.96-29.54Q236.01-29 236.01-28.52 236.01-28.03 236.01-27.49L236.01-27.49Q236.01-25.93 235.94-24.44 235.86-22.95 235.86-21.44L235.86-21.44Q235.86-19.92 236.01-18.55L236.01-18.55Q237.04-18.55 237.87-19.14L237.87-19.14Q238.21-19.38 238.5-19.65 238.79-19.92 239.14-20.17L239.14-20.17Q239.53-20.41 240.04-20.75 240.55-21.09 241.06-21.44 241.58-21.78 242.04-22.14 242.5-22.51 242.8-22.85ZM264.33-37.01L264.43-36.96Q264.67-36.08 264.91-35.23 265.16-34.38 265.5-33.54L265.5-33.54Q266.23-33.45 266.4-33.4 266.57-33.35 266.82-33.25L266.82-33.25Q267.36-31.98 267.48-30.54 267.6-29.1 267.84-27.73L267.84-27.73Q268.77-26.51 269.19-25.12 269.6-23.73 270.14-22.31L270.14-22.31Q270.29-21.83 270.33-21.7 270.38-21.58 270.38-21.48L270.38-21.48Q270.68-20.65 270.97-19.78 271.26-18.9 271.6-18.07L271.6-18.07Q271.75-17.63 271.92-17.21 272.09-16.8 272.24-16.41L272.24-16.41Q272.38-15.92 272.51-15.41 272.63-14.89 272.78-14.4L272.78-14.4Q273.12-13.43 273.51-12.45 273.9-11.47 274.29-10.5L274.29-10.5Q274.44-10.16 274.85-8.98 275.27-7.81 275.7-6.52 276.14-5.22 276.51-4.13 276.88-3.03 276.88-2.78L276.88-2.78Q276.88-2.39 276.95-1.98 277.02-1.56 277.07-1.12L277.07-1.12Q276.88-0.63 276.58-0.59 276.29-0.54 276.05-0.63L276.05-0.63Q275.8-0.54 275.58-0.44 275.36-0.34 275.17-0.24L275.17-0.24Q275.02-0.2 274.92-0.1 274.83 0 274.68 0L274.68 0Q274.09 0 273.92 0.12 273.75 0.24 273.41 0.24L273.41 0.24Q272.97 0.1 272.85 0.22 272.73 0.34 272.63 0.39L272.63 0.39Q272.43 0.49 272.19 0.49 271.95 0.49 271.7 0.54L271.7 0.54Q271.6 0.34 271.53 0.15 271.46-0.05 271.31-0.29L271.31-0.29Q270.77-1.07 270.55-1.81 270.33-2.54 270.19-2.98L270.19-2.98Q269.94-3.52 269.77-4.05 269.6-4.59 269.36-5.13L269.36-5.13Q269.06-5.03 268.82-4.91 268.58-4.79 268.43-4.59L268.43-4.59Q267.84-4.59 267.84-4.44 267.84-4.3 267.75-4.15L267.75-4.15Q267.45-4.05 267.28-3.96 267.11-3.86 266.72-3.91L266.72-3.91Q266.48-3.66 266.23-3.49 265.99-3.32 265.6-3.27L265.6-3.27Q265.21-2.88 264.79-2.61 264.38-2.34 263.84-2.49L263.84-2.49Q263.16-2.34 262.47-2.22 261.79-2.1 261.11-2.1L261.11-2.1Q260.32-2.34 260.13-2.54 259.93-2.73 259.54-2.73L259.54-2.73Q259.59-3.42 259.25-3.66L259.25-3.66Q259.25-3.81 259.27-4.13 259.3-4.44 259.4-4.54L259.4-4.54Q260.03-4.83 260.13-5.18 260.23-5.52 260.67-5.62L260.67-5.62Q260.76-5.81 260.89-5.98 261.01-6.15 261.11-6.35L261.11-6.35Q261.35-6.45 261.52-6.49 261.69-6.54 261.79-6.79L261.79-6.79Q262.03-6.79 262.52-7.1 263.01-7.42 263.16-7.62L263.16-7.62Q263.55-7.76 263.64-7.89 263.74-8.01 263.89-8.11L263.89-8.11Q264.38-8.06 264.52-8.2L264.52-8.2Q264.91-8.01 265.4-8.01L265.4-8.01Q265.6-8.01 265.74-8.03 265.89-8.06 266.09-8.06L266.09-8.06Q266.48-8.45 267.09-8.57 267.7-8.69 268.09-9.08L268.09-9.08Q267.94-9.47 267.84-10.03 267.75-10.6 267.5-10.94L267.5-10.94Q267.4-11.57 267.18-12.16 266.96-12.74 266.82-13.28L266.82-13.28Q266.28-15.33 265.55-17.29 264.82-19.24 264.33-21.29L264.33-21.29Q264.23-21.53 264.11-21.8 263.99-22.07 263.89-22.31L263.89-22.31Q263.64-21.73 263.64-21.66 263.64-21.58 263.55-21.48L263.55-21.48Q263.5-21.24 263.45-21.07 263.4-20.9 263.3-20.65L263.3-20.65Q263.16-20.26 263.03-19.8 262.91-19.34 262.81-18.95L262.81-18.95Q262.57-18.12 262.37-17.21 262.18-16.31 261.94-15.43L261.94-15.43Q261.45-13.92 260.93-12.43 260.42-10.94 259.93-9.42L259.93-9.42Q259.84-8.74 259.71-8.37 259.59-8.01 259.47-7.64 259.35-7.28 259.27-6.93 259.2-6.59 259.2-6.4L259.2-6.4Q258.52-4.83 258.05-3.22 257.59-1.61 256.91-0.1L256.91-0.1Q256.71 0 256.56 0.15 256.42 0.29 256.22 0.29L256.22 0.29Q255.83 0.29 255.81 0.1 255.78-0.1 255.59-0.1L255.59-0.1Q255.39-0.1 255.25-0.02 255.1 0.05 254.95 0.15L254.95 0.15Q254.71 0.05 254.39 0.02 254.07 0 253.93-0.2L253.93-0.2Q253.59 0.05 253.24 0.05L253.24 0.05Q252.85 0.05 252.46-0.2L252.46-0.2Q252.17-0.1 251.88-0.1L251.88-0.1Q251.73-0.1 251.54-0.15 251.34-0.2 251.24-0.29L251.24-0.29Q251.19-0.49 251.19-0.68 251.19-0.88 251.19-1.12L251.19-1.12Q251.19-1.61 251.1-1.86L251.1-1.86Q251.97-4.35 252.8-6.91 253.63-9.47 254.46-12.11L254.46-12.11Q254.9-13.33 255.32-14.5 255.73-15.67 256.12-16.89L256.12-16.89Q256.32-17.58 256.47-18.19 256.61-18.8 256.86-19.38L256.86-19.38Q257.25-20.65 257.66-21.95 258.08-23.24 258.42-24.51L258.42-24.51Q258.62-24.66 258.66-24.85 258.71-25.05 258.81-25.29L258.81-25.29 258.76-25.93Q259.1-26.42 259.23-26.78 259.35-27.15 259.4-27.54L259.4-27.54Q259.64-28.13 259.84-28.81 260.03-29.49 260.13-30.08L260.13-30.08Q260.23-30.86 260.25-31.86 260.28-32.86 260.52-33.54L260.52-33.54Q260.62-33.74 260.69-33.81 260.76-33.89 260.76-34.13L260.76-34.13Q260.86-34.23 260.98-34.35 261.11-34.47 261.15-34.62L261.15-34.62Q261.4-35.01 261.33-35.3 261.25-35.6 261.25-35.94L261.25-35.94Q261.69-36.18 261.64-36.38 261.59-36.57 261.59-36.77L261.59-36.77Q261.59-37.01 261.91-37.23 262.23-37.45 262.33-37.7L262.33-37.7Q262.62-37.65 262.91-37.62 263.2-37.6 263.5-37.65L263.5-37.65Q263.84-37.01 264.33-37.01L264.33-37.01ZM296.75-37.55L296.75-37.55Q297.14-37.55 297.31-37.38 297.48-37.21 297.58-36.96L297.58-36.96Q298.07-37.01 298.58-36.79 299.09-36.57 299.19-36.38L299.19-36.38Q299.58-36.33 299.68-36.18 299.77-36.04 299.97-35.99L299.97-35.99 300.51-36.04Q300.7-35.84 301.26-35.64 301.83-35.45 301.92-35.21L301.92-35.21Q301.83-34.96 301.85-34.69 301.87-34.42 301.87-34.08L301.87-34.08Q301.73-33.35 301.41-32.76 301.09-32.18 300.85-31.64L300.85-31.64Q300.7-31.4 300.63-31.1 300.56-30.81 300.46-30.57L300.46-30.57Q300.36-30.37 300.29-30.2 300.21-30.03 300.12-29.83L300.12-29.83Q300.12-29.59 300.02-29.32 299.92-29.05 299.82-28.81L299.82-28.81Q299.82-28.52 299.77-28.39 299.73-28.27 299.73-28.17L299.73-28.17Q298.8-25.93 298.26-23.97 297.72-22.02 297.19-20.07L297.19-20.07Q296.94-19.48 296.7-18.6 296.45-17.72 296.09-16.53 295.72-15.33 295.31-13.99 294.89-12.65 294.53-11.5 294.16-10.35 293.89-9.55 293.62-8.74 293.57-8.64L293.57-8.64Q293.43-7.81 293.13-6.96 292.84-6.1 292.65-5.18L292.65-5.18Q292.4-4.88 292.35-4.52 292.3-4.15 292.11-3.81L292.11-3.81Q291.72-3.86 291.47-3.61L291.47-3.61Q291.43-3.22 291.55-2.88 291.67-2.54 291.67-2.15L291.67-2.15Q291.47-1.61 291.18-1.46 290.89-1.32 290.79-0.98L290.79-0.98Q290.45-1.07 290.28-0.88 290.11-0.68 289.91-0.68L289.91-0.68Q289.33-0.83 289.23-0.49L289.23-0.49Q288.93-0.59 288.84-0.42 288.74-0.24 288.64-0.2L288.64-0.2Q288.25-0.2 288.03-0.02 287.81 0.15 287.52 0.2L287.52 0.2Q287.32 0.1 287.13-0.02 286.93-0.15 286.79-0.29L286.79-0.29Q286.49-1.12 286.25-1.93 286.01-2.73 285.76-3.56L285.76-3.56Q285.66-3.96 285.52-4.3 285.37-4.64 285.27-5.03L285.27-5.03Q285.22-5.27 285.22-5.44 285.22-5.62 285.18-5.81L285.18-5.81Q285.08-6.05 284.98-6.3 284.88-6.54 284.78-6.79L284.78-6.79Q284.39-7.86 284.2-8.98L284.2-8.98Q283.95-9.81 283.73-10.62 283.51-11.43 283.32-12.26L283.32-12.26Q283.17-12.94 282.98-13.7 282.78-14.45 282.49-15.04L282.49-15.04Q282.39-15.82 282.07-16.53 281.76-17.24 281.76-17.97L281.76-17.97Q281.51-18.75 281.34-19.53 281.17-20.31 280.93-21.09L280.93-21.09Q280.83-21.48 280.68-21.83 280.54-22.17 280.44-22.51L280.44-22.51Q280.29-22.95 280.19-23.44 280.1-23.93 280-24.41L280-24.41Q279.85-24.85 279.71-25.27 279.56-25.68 279.41-26.12L279.41-26.12Q279.17-26.95 278.95-27.76 278.73-28.56 278.49-29.39L278.49-29.39Q278.24-30.32 278.02-31.23 277.8-32.13 277.26-32.96L277.26-32.96Q277.12-33.2 277.05-33.52 276.97-33.84 276.83-34.13L276.83-34.13Q276.92-34.52 276.87-35.03 276.83-35.55 277.02-35.84L277.02-35.84Q277.51-35.84 278.19-35.86 278.88-35.89 279.22-35.79L279.22-35.79Q279.41-35.84 279.54-35.94 279.66-36.04 279.85-36.08L279.85-36.08Q280.15-35.94 280.44-35.94L280.44-35.94Q280.88-35.94 281.12-36.13L281.12-36.13Q281.66-35.89 281.71-36.04 281.76-36.18 281.95-36.18L281.95-36.18Q282.25-36.08 282.39-35.77 282.54-35.45 282.68-35.21L282.68-35.21Q283.22-34.23 283.49-33.28 283.76-32.32 284.05-31.25L284.05-31.25Q284.39-30.27 284.69-29.32 284.98-28.37 285.22-27.39L285.22-27.39Q285.37-26.9 285.47-26.42 285.57-25.93 285.66-25.44L285.66-25.44Q285.81-24.9 286.01-24.44 286.2-23.97 286.4-23.44L286.4-23.44Q286.49-22.9 286.59-22.39 286.69-21.88 286.84-21.34L286.84-21.34Q286.93-20.95 287.08-20.61 287.23-20.26 287.32-19.87L287.32-19.87Q287.42-19.48 287.52-19.07 287.62-18.65 287.71-18.26L287.71-18.26Q287.96-17.29 288.25-16.33 288.54-15.38 288.79-14.4L288.79-14.4Q289.03-14.55 289.08-14.94 289.13-15.33 289.28-15.58L289.28-15.58Q289.37-16.16 289.59-16.85 289.81-17.53 290.01-18.12L290.01-18.12Q290.06-18.36 290.13-18.55 290.2-18.75 290.3-18.99L290.3-18.99Q290.45-19.29 290.5-19.6 290.55-19.92 290.64-20.26L290.64-20.26Q290.84-20.95 291.06-21.63 291.28-22.31 291.47-23L291.47-23Q291.67-23.63 291.82-24.32 291.96-25 292.21-25.59L292.21-25.59Q292.45-26.12 292.62-26.61 292.79-27.1 292.94-27.64L292.94-27.64Q293.09-28.17 293.18-28.71 293.28-29.25 293.52-29.69L293.52-29.69Q293.62-29.93 293.74-30.25 293.87-30.57 293.96-30.86L293.96-30.86Q294.21-31.64 294.4-32.42 294.6-33.2 294.94-33.98L294.94-33.98Q295.18-34.67 295.53-35.3 295.87-35.94 296.11-36.62L296.11-36.62Q296.31-37.11 296.45-37.26 296.6-37.4 296.75-37.55ZM312.08-12.79L312.08-12.79Q312.17-12.55 312.78-11.77 313.4-10.99 314.18-10.06 314.96-9.13 315.67-8.28 316.37-7.42 316.67-7.03L316.67-7.03Q317.2-6.35 317.72-5.69 318.23-5.03 318.67-4.3L318.67-4.3 319.55-2.83Q319.94-2.34 320.26-2 320.57-1.66 320.77-1.07L320.77-1.07Q320.87-0.68 320.87-0.54L320.87-0.54Q320.87-0.2 320.62-0.05L320.62-0.05Q320.23-0.05 320.21 0.07 320.18 0.2 319.99 0.29L319.99 0.29Q319.79 0.39 319.38 0.42 318.96 0.44 318.72 0.44L318.72 0.44Q318.28 0.44 317.62 0.42 316.96 0.39 316.57 0.54L316.57 0.54Q316.47 0.59 316.28 0.68 316.08 0.78 315.98 0.78L315.98 0.78Q315.59 0.78 315.42 0.66 315.25 0.54 314.96 0.49L314.96 0.49Q314.57 0.05 314.3-0.42 314.03-0.88 313.69-1.37L313.69-1.37Q313.35-1.71 313-1.98 312.66-2.25 312.42-2.59L312.42-2.59Q311.69-3.66 310.91-4.69 310.12-5.71 309.29-6.69L309.29-6.69Q308.9-7.23 308.46-7.67 308.02-8.11 307.63-8.64L307.63-8.64Q307.24-9.13 306.9-9.69 306.56-10.25 306.22-10.79L306.22-10.79Q305.92-11.23 305.44-11.94 304.95-12.65 304.36-13.35 303.78-14.06 303.19-14.7 302.6-15.33 302.21-15.67L302.21-15.67Q302.16-15.97 301.97-16.14 301.77-16.31 301.53-16.46L301.53-16.46Q301.43-16.7 301.31-16.92 301.19-17.14 301.19-17.38L301.19-17.38Q301.19-17.72 301.33-18.02L301.33-18.02Q301.43-18.21 301.46-18.38 301.48-18.55 301.58-18.75L301.58-18.75Q301.82-19.29 302.24-19.8 302.65-20.31 302.9-20.9L302.9-20.9Q302.99-21.04 302.99-21.22 302.99-21.39 303.09-21.53L303.09-21.53Q303.19-21.92 303.51-22.19 303.82-22.46 304.02-22.8L304.02-22.8Q304.26-23.19 304.48-23.61 304.7-24.02 304.95-24.51L304.95-24.51Q305.68-25.73 306.49-26.88 307.29-28.03 308.12-29.2L308.12-29.2Q308.76-30.18 309.37-31.08 309.98-31.98 310.61-32.91L310.61-32.91Q310.95-33.35 311.34-33.94 311.74-34.52 312.2-35.11 312.66-35.69 313.15-36.18 313.64-36.67 314.13-36.96L314.13-36.96Q314.86-37.01 315.1-36.65 315.35-36.28 315.84-36.28L315.84-36.28Q316.47-36.13 316.67-35.89 316.86-35.64 317.11-35.4L317.11-35.4Q317.79-35.4 318.2-35.16 318.62-34.91 319.01-34.42L319.01-34.42Q318.86-33.89 318.57-33.47 318.28-33.06 318.03-32.62L318.03-32.62Q317.64-32.42 317.47-32.08 317.3-31.74 316.96-31.54L316.96-31.54Q316.47-30.71 315.93-29.96 315.4-29.2 314.86-28.47L314.86-28.47Q314.57-28.03 314.25-27.69 313.93-27.34 313.69-26.95L313.69-26.95Q313.59-26.81 313.52-26.64 313.44-26.46 313.35-26.32L313.35-26.32Q312.76-25.39 312.08-24.58 311.39-23.78 310.81-22.8L310.81-22.8Q310.61-22.46 310.49-22.09 310.37-21.73 310.17-21.39L310.17-21.39Q309.98-21.09 309.61-20.61 309.24-20.12 308.9-19.56 308.56-18.99 308.29-18.48 308.02-17.97 308.02-17.63L308.02-17.63Q308.07-17.38 308.63-16.67 309.2-15.97 309.9-15.16 310.61-14.36 311.25-13.65 311.88-12.94 312.08-12.79ZM315.3-21.68L315.3-21.68Q315.64-20.95 316.03-20.41L316.03-20.41Q316.18-20.21 316.37-20.07 316.57-19.92 316.67-19.68L316.67-19.68Q316.76-19.58 316.86-19.26 316.96-18.95 317.06-18.8L317.06-18.8Q317.2-18.41 317.64-17.92 318.08-17.43 318.08-17.04L318.08-17.04Q318.08-16.8 317.99-16.5 317.89-16.21 317.84-15.97L317.84-15.97Q317.79-15.67 317.79-15.36 317.79-15.04 317.59-14.79L317.59-14.79Q317.35-14.55 317.06-14.5 316.76-14.45 316.52-14.26L316.52-14.26Q316.42-14.16 316.23-13.92 316.03-13.67 315.84-13.38 315.64-13.09 315.47-12.82 315.3-12.55 315.3-12.4L315.3-12.4Q314.71-12.35 314.54-12.38 314.37-12.4 314.18-12.35L314.18-12.35Q313.93-12.6 313.66-12.77 313.4-12.94 313-13.09L313-13.09Q312.91-13.48 312.57-13.99 312.22-14.5 311.98-14.84L311.98-14.84 311.64-15.28Q310.91-16.31 310.29-17.26 309.68-18.21 309.39-19.38L309.39-19.38Q310.32-20.07 310.83-20.41 311.34-20.75 311.93-21.04 312.52-21.34 313.08-21.61 313.64-21.88 314.13-22.27L314.13-22.27Q314.52-22.27 314.66-22.22 314.81-22.17 314.86-22.12 314.91-22.07 314.98-21.95 315.06-21.83 315.3-21.68ZM333.12-35.99L333.12-35.99Q333.22-35.79 333.34-35.72 333.46-35.64 333.51-35.4L333.51-35.4Q333.85-35.16 334.05-35.03 334.24-34.91 334.29-34.62L334.29-34.62Q334.73-34.28 334.8-34.18 334.88-34.08 334.93-33.94L334.93-33.94Q335.17-33.74 335.39-33.59 335.61-33.45 335.71-33.15L335.71-33.15Q336.1-32.81 336.2-32.62 336.29-32.42 336.34-32.18L336.34-32.18Q336.15-31.84 335.56-31.25 334.97-30.66 334.24-30 333.51-29.35 332.83-28.74 332.14-28.13 331.75-27.78L331.75-27.78Q331.65-27.59 331.51-27.44 331.36-27.29 331.26-27.1L331.26-27.1Q330.97-26.86 330.73-26.59 330.48-26.32 330.14-26.17L330.14-26.17Q329.65-25.49 328.77-24.83 327.89-24.17 327.6-23.54L327.6-23.54Q327.65-23.39 327.82-23.24 327.99-23.1 328.09-23L328.09-23Q328.48-22.61 329.02-22.29 329.55-21.97 329.95-21.58L329.95-21.58Q330.34-21.24 330.73-20.92 331.12-20.61 331.51-20.26L331.51-20.26Q331.7-20.07 332-19.68L332-19.68Q332.48-19.29 332.95-18.97 333.41-18.65 333.85-18.26L333.85-18.26Q334.78-17.48 335.66-16.67 336.54-15.87 337.51-15.09L337.51-15.09 337.9-14.65Q337.9-14.26 338.12-13.75 338.34-13.23 338.54-12.89L338.54-12.89Q338.44-12.4 338.56-12.28 338.69-12.16 338.78-12.06L338.78-12.06Q338.73-11.13 338.83-10.84L338.83-10.84Q338-10.11 337.29-9.5 336.59-8.89 336.05-8.3L336.05-8.3Q335.61-7.76 335.15-7.35 334.68-6.93 334.14-6.45L334.14-6.45Q333.85-6.05 333.66-5.91L333.66-5.91Q333.31-5.57 332.97-5.37L332.97-5.37Q332.39-4.83 331.83-4.35 331.26-3.86 330.73-3.37L330.73-3.37Q330.34-3.03 329.99-2.71 329.65-2.39 329.31-2L329.31-2Q329.02-1.71 328.65-1.32 328.29-0.93 327.89-0.68L327.89-0.68Q327.75-0.39 327.5-0.17 327.26 0.05 327.06 0.29L327.06 0.29Q326.72 0.49 326.43 0.68 326.14 0.88 325.75 1.07L325.75 1.07Q325.36 0.78 324.99 0.54 324.62 0.29 324.18 0.2L324.18 0.2Q323.89-0.05 323.74-0.29 323.6-0.54 323.21-0.63L323.21-0.63Q323.11-0.78 322.99-0.95 322.87-1.12 322.77-1.32L322.77-1.32Q322.18-1.37 321.84-2.05L321.84-2.05Q321.94-2.34 322.11-2.49 322.28-2.64 322.18-3.03L322.18-3.03Q322.47-3.52 322.89-3.88 323.3-4.25 323.7-4.64L323.7-4.64Q324.13-5.03 324.5-5.44 324.87-5.86 325.31-6.25L325.31-6.25Q325.55-6.49 325.8-6.71 326.04-6.93 326.33-7.18L326.33-7.18Q326.87-7.71 327.43-8.18 327.99-8.64 328.58-9.18L328.58-9.18Q329.36-9.96 330.19-10.67 331.02-11.38 331.7-12.26L331.7-12.26Q331.65-12.45 331.56-12.52 331.46-12.6 331.41-12.74L331.41-12.74Q330.63-13.48 329.87-14.18 329.12-14.89 328.24-15.43L328.24-15.43Q327.94-15.72 327.85-15.92L327.85-15.92Q326.97-16.55 326.16-17.33 325.36-18.12 324.38-18.65L324.38-18.65Q324.18-18.9 323.92-19.07 323.65-19.24 323.4-19.38L323.4-19.38Q323.26-19.63 323.09-19.8 322.91-19.97 322.67-20.07L322.67-20.07Q322.28-20.41 322.16-20.63 322.04-20.85 321.74-20.9L321.74-20.9Q321.64-21.14 321.42-21.29 321.21-21.44 320.96-21.63L320.96-21.63Q320.86-21.92 320.67-22.12L320.67-22.12Q320.62-22.51 320.72-22.68 320.81-22.85 320.86-22.95L320.86-22.95Q320.81-23.24 320.59-23.39 320.38-23.54 320.38-23.88L320.38-23.88Q320.38-24.07 320.5-24.15 320.62-24.22 320.67-24.37L320.67-24.37 320.81-25.1Q321.21-25.39 321.47-25.81 321.74-26.22 322.18-26.46L322.18-26.46Q322.67-27.2 323.4-27.69L323.4-27.69Q323.65-28.08 324.01-28.32 324.38-28.56 324.62-28.96L324.62-28.96Q325.01-29.2 325.28-29.49 325.55-29.79 325.94-30.03L325.94-30.03Q326.04-30.22 326.16-30.35 326.28-30.47 326.33-30.62L326.33-30.62Q327.65-31.88 328.65-32.81 329.65-33.74 330.73-34.67L330.73-34.67Q331.02-34.91 331.31-35.21 331.61-35.5 331.95-35.74L331.95-35.74Q332.05-35.84 332.19-35.84 332.34-35.84 332.48-35.94L332.48-35.94Q333.07-35.94 333.12-35.99ZM361.44-34.91L361.44-34.91Q361.34-34.72 361.36-34.52 361.39-34.33 361.39-34.08L361.39-34.08Q361.29-33.5 361.39-33.5 361.49-33.5 361.49-33.4L361.49-33.4 361.14-32.91Q361.14-32.62 361.02-32.37 360.9-32.13 360.95-31.79L360.95-31.79Q360.8-31.54 360.68-31.3 360.56-31.05 360.31-30.81L360.31-30.81 359.68-30.81Q359.14-30.81 358.53-30.74 357.92-30.66 357.34-30.66L357.34-30.66Q357.24-30.66 357.09-30.69 356.94-30.71 356.8-30.71L356.8-30.71Q356.7-30.71 356.55-30.69 356.41-30.66 356.21-30.66L356.21-30.66Q355.48-30.66 354.77-30.74 354.06-30.81 353.28-30.81L353.28-30.81Q353.09-30.81 352.89-30.81 352.7-30.81 352.45-30.76L352.45-30.76Q352.4-29.93 352.38-29.08 352.36-28.22 352.36-27.34L352.36-27.34Q352.36-27.1 352.31-26.83 352.26-26.56 352.26-26.32L352.26-26.32Q352.21-25.68 352.18-25.1 352.16-24.51 352.16-23.88L352.16-23.88Q352.16-22.51 352.18-21.14 352.21-19.78 352.26-18.36L352.26-18.36Q352.31-17.63 352.36-16.94 352.4-16.26 352.4-15.53L352.4-15.53Q352.4-13.87 352.36-12.23 352.31-10.6 352.31-8.94L352.31-8.94Q352.31-8.4 352.26-7.93 352.21-7.47 352.21-6.93L352.21-6.93Q352.21-5.81 352.26-4.69 352.31-3.56 352.31-2.44L352.31-2.44Q352.31-1.9 352.28-1.37 352.26-0.83 352.26-0.29L352.26-0.29Q352.01 0.1 351.92 0.39 351.82 0.68 351.33 0.68L351.33 0.68Q350.99 0.59 351.01 0.46 351.04 0.34 350.94 0.24L350.94 0.24Q350.5 0.2 350.28 0.32 350.06 0.44 349.77 0.54L349.77 0.54Q349.62 0.49 349.45 0.49 349.28 0.49 349.13 0.49L349.13 0.49Q349.03 0.49 348.94 0.56 348.84 0.63 348.5 0.63L348.5 0.63Q348.2 0.68 348.16 0.54 348.11 0.39 347.86 0.39L347.86 0.39Q347.62 0.54 347.3 0.61 346.98 0.68 346.69 0.68L346.69 0.68Q346.4 0.49 346.42 0.32 346.45 0.15 346.35-0.05L346.35-0.05Q346.3-0.15 346.18-0.32 346.06-0.49 345.96-0.59L345.96-0.59Q346.06-1.27 346.11-1.81 346.15-2.34 346.15-2.98L346.15-2.98Q346.15-4.25 346.06-5.47 345.96-6.69 345.96-7.96L345.96-7.96Q345.96-8.35 346.06-8.79 346.15-9.23 346.15-9.72L346.15-9.72Q346.06-10.11 346.11-10.18 346.15-10.25 346.15-10.35L346.15-10.35Q346.15-10.64 346.13-10.94 346.11-11.23 346.11-11.52L346.11-11.52Q346.11-12.11 346.13-12.7 346.15-13.28 346.15-13.87L346.15-13.87Q346.15-14.11 346.13-14.38 346.11-14.65 346.11-14.89L346.11-14.89Q346.06-15.33 346.08-15.82 346.11-16.31 346.11-16.8L346.11-16.8Q346.11-19.14 346.03-21.44 345.96-23.73 345.96-26.07L345.96-26.07Q345.96-27.25 346.08-28.39 346.2-29.54 346.2-30.71L346.2-30.71Q346.2-30.86 346.11-31.1 346.01-31.35 345.91-31.45L345.91-31.45Q345.67-31.45 345.45-31.47 345.23-31.49 344.98-31.49L344.98-31.49Q344.44-31.49 343.96-31.35L343.96-31.35Q343.03-31.3 342.17-31.23 341.32-31.15 340.44-31.1L340.44-31.1Q339.86-31.15 339.73-31.13 339.61-31.1 339.46-31.1L339.46-31.1Q339.07-31.1 338.88-31.3L338.88-31.3 338.88-31.93Q338.59-32.52 338.63-32.57 338.68-32.62 338.68-32.71L338.68-32.71Q338.68-32.86 338.41-33.03 338.15-33.2 338.15-33.59L338.15-33.59Q338.1-33.98 337.95-34.18 337.8-34.38 337.8-34.57L337.8-34.57Q337.8-34.91 337.95-35.35L337.95-35.35Q338.39-35.6 338.81-35.69 339.22-35.79 339.76-35.94L339.76-35.94Q340.05-36.04 340.29-36.13 340.54-36.23 340.83-36.28L340.83-36.28Q341.17-36.33 341.52-36.33 341.86-36.33 342.2-36.38L342.2-36.38Q342.93-36.52 343.74-36.62 344.54-36.72 345.28-36.72L345.28-36.72Q345.96-36.72 346.64-36.55 347.33-36.38 347.86-36.38L347.86-36.38Q348.64-36.38 349.35-36.28 350.06-36.18 350.84-36.18L350.84-36.18Q350.94-36.18 351.16-36.11 351.38-36.04 351.67-36.04L351.67-36.04 356.41-36.04Q356.8-35.94 356.97-35.99 357.14-36.04 357.29-36.04L357.29-36.04Q357.68-36.04 358.02-35.99 358.36-35.94 358.75-35.94L358.75-35.94Q359.09-35.94 359.29-35.99L359.29-35.99Q359.68-35.94 360.02-35.77 360.36-35.6 360.8-35.6L360.8-35.6Q361-35.45 361.1-35.23 361.19-35.01 361.44-34.91ZM387.46-19.38L387.46-19.38Q387.36-19.19 387.26-19.02 387.17-18.85 387.12-18.65L387.12-18.65Q387.31-18.46 387.48-18.24 387.66-18.02 387.66-17.77L387.66-17.77Q387.66-17.58 387.58-17.41 387.51-17.24 387.56-17.09L387.56-17.09Q387.36-16.75 387.14-16.46 386.92-16.16 386.83-15.82L386.83-15.82Q386.63-15.63 386.51-15.43 386.39-15.23 386.29-15.04L386.29-15.04Q386.04-14.94 385.97-14.72 385.9-14.5 385.7-14.36L385.7-14.36Q385.65-14.16 385.21-13.43 384.77-12.7 384.24-11.87 383.7-11.04 383.21-10.25 382.72-9.47 382.53-9.23L382.53-9.23Q382.43-8.98 382.31-8.84 382.19-8.69 382.04-8.5L382.04-8.5Q381.94-8.35 381.89-8.18 381.84-8.01 381.75-7.91L381.75-7.91Q381.65-7.71 381.53-7.57 381.41-7.42 381.31-7.18L381.31-7.18Q380.82-6.54 380.33-5.66 379.84-4.79 379.4-4.1L379.4-4.1Q379.16-3.71 378.94-3.32 378.72-2.93 378.48-2.54L378.48-2.54Q378.23-2.15 377.99-1.81 377.74-1.46 377.5-1.07L377.5-1.07Q377.11-0.78 376.82-0.37 376.52 0.05 376.13 0.34L376.13 0.34Q375.5 0.34 375.35-0.24L375.35-0.24Q374.72-0.39 374.72-0.24 374.72-0.1 374.72 0L374.72 0Q374.52 0.1 374.45 0.29 374.37 0.49 374.18 0.59L374.18 0.59Q373.79 0.49 373.52 0.27 373.25 0.05 372.76 0.1L372.76 0.1Q372.57-0.2 372.32-0.42 372.08-0.63 371.88-0.88L371.88-0.88Q371.79-1.17 371.62-1.37 371.44-1.56 371.3-1.76L371.3-1.76Q371.15-2 371-2.2 370.86-2.39 370.71-2.59L370.71-2.59Q370.37-3.03 370.05-3.44 369.74-3.86 369.49-4.3L369.49-4.3Q369.1-4.88 368.73-5.49 368.37-6.1 367.98-6.69L367.98-6.69Q367.78-6.98 367.59-7.28 367.39-7.57 367.25-7.86L367.25-7.86Q367.15-8.11 366.98-8.45 366.81-8.79 366.56-8.89L366.56-8.89Q366.46-9.28 366.22-9.47 365.98-9.67 365.73-9.96L365.73-9.96Q365.39-10.35 365.1-10.82 364.8-11.28 364.51-11.77L364.51-11.77Q363.53-13.13 362.68-14.45 361.83-15.77 361-17.19L361-17.19Q361.24-17.97 361.24-18.36 361.24-18.75 361.48-18.99L361.48-18.99Q361.48-19.19 361.58-19.58L361.58-19.58Q362.22-20.65 362.8-21.53L362.8-21.53Q363.34-22.36 363.56-22.9 363.78-23.44 364.02-24.02L364.02-24.02Q364.27-24.17 364.41-24.39 364.56-24.61 364.8-24.8L364.8-24.8Q364.9-25.34 365.24-25.71 365.59-26.07 365.68-26.61L365.68-26.61Q366.12-26.95 366.17-27.39L366.17-27.39Q366.81-27.83 366.95-28.56L366.95-28.56Q367.34-28.96 367.61-29.44 367.88-29.93 368.12-30.47L368.12-30.47Q368.71-30.96 369.05-31.74L369.05-31.74Q369.34-31.93 369.49-32.28 369.64-32.62 369.88-32.86L369.88-32.86Q370.27-33.5 370.49-33.91 370.71-34.33 370.96-34.77L370.96-34.77Q371.3-34.77 371.4-35.01 371.49-35.25 371.79-35.21L371.79-35.21Q371.79-35.64 372.03-35.99L372.03-35.99Q372.13-36.04 372.32-36.11 372.52-36.18 372.52-36.28L372.52-36.28Q372.42-36.87 372.57-36.96 372.71-37.06 372.81-37.16L372.81-37.16Q373.35-37.06 373.54-37.01 373.74-36.96 374.18-36.67L374.18-36.67Q374.67-36.67 374.86-36.47 375.06-36.28 375.3-36.18L375.3-36.18Q375.5-35.99 375.62-35.79 375.74-35.6 375.99-35.5L375.99-35.5Q376.38-34.96 376.82-34.33 377.25-33.69 377.65-33.15L377.65-33.15Q378.18-32.42 378.74-31.76 379.31-31.1 379.79-30.32L379.79-30.32Q379.94-30.08 380.33-29.47 380.72-28.86 381.21-28.17 381.7-27.49 382.09-26.93 382.48-26.37 382.63-26.27L382.63-26.27Q382.77-26.03 383.26-25.34 383.75-24.66 384.31-23.9 384.87-23.14 385.41-22.46 385.95-21.78 386.14-21.58L386.14-21.58Q386.68-20.85 386.95-20.39 387.22-19.92 387.46-19.38ZM376.28-10.21L376.28-10.21Q376.82-10.94 377.11-11.52 377.4-12.11 377.69-12.7L377.69-12.7Q378.18-13.28 378.28-13.53 378.38-13.77 378.52-14.01L378.52-14.01Q378.92-14.6 379.33-15.19 379.75-15.77 379.99-16.46L379.99-16.46Q380.28-16.65 380.43-16.94 380.58-17.24 380.87-17.48L380.87-17.48Q380.58-18.51 380.18-19.07 379.79-19.63 379.4-20.17L379.4-20.17Q379.26-20.41 379.11-20.65 378.96-20.9 378.82-21.14L378.82-21.14Q378.62-21.29 378.5-21.44 378.38-21.58 378.23-21.73L378.23-21.73Q378.13-21.97 377.94-22.36L377.94-22.36Q377.74-22.61 377.55-22.8 377.35-23 377.21-23.29L377.21-23.29Q377.01-23.49 376.72-23.83 376.42-24.17 376.11-24.58 375.79-25 375.55-25.37 375.3-25.73 375.16-25.98L375.16-25.98Q375.06-26.22 374.98-26.39 374.91-26.56 374.81-26.76L374.81-26.76Q374.57-27.1 374.33-27.37 374.08-27.64 373.84-27.98L373.84-27.98Q373.69-27.88 373.57-27.86 373.45-27.83 373.35-27.73L373.35-27.73Q373.01-27.1 372.59-26.56 372.18-26.03 371.79-25.39L371.79-25.39Q371.44-24.8 371.1-24.19 370.76-23.58 370.42-23L370.42-23Q370.17-22.66 369.96-22.34 369.74-22.02 369.49-21.63L369.49-21.63Q369.25-21.29 369.08-20.92 368.91-20.56 368.66-20.21L368.66-20.21Q368.27-19.73 368.03-19.34 367.78-18.95 367.54-18.41L367.54-18.41Q367.68-18.12 368-17.6 368.32-17.09 368.66-16.58 369-16.06 369.27-15.63 369.54-15.19 369.59-15.04L369.59-15.04Q369.98-14.7 370.22-14.28 370.47-13.87 370.86-13.48L370.86-13.48Q371.05-13.09 371.3-12.79 371.54-12.5 371.79-12.16L371.79-12.16Q372.03-11.82 372.42-11.16 372.81-10.5 373.2-9.81 373.59-9.13 373.98-8.54 374.37-7.96 374.62-7.81L374.62-7.81Q375.11-8.35 375.42-9.01 375.74-9.67 376.28-10.21ZM406.65-36.43L406.65-36.43Q407.43-36.52 407.84-36.3 408.26-36.08 408.7-36.04L408.7-36.04Q408.94-35.99 409.21-36.01 409.48-36.04 409.77-36.04L409.77-36.04Q410.41-36.04 410.77-35.89 411.14-35.74 411.53-35.25L411.53-35.25Q411.63-35.16 411.8-34.99 411.97-34.81 411.97-34.67L411.97-34.67Q411.97-34.28 411.77-33.98 411.58-33.69 411.58-33.15L411.58-33.15Q411.58-32.32 411.77-31.52 411.97-30.71 412.02-29.88L412.02-29.88Q412.26-26.86 412.29-23.8 412.31-20.75 412.31-17.77L412.31-17.77Q412.31-17.38 412.29-17.07 412.26-16.75 412.07-16.5L412.07-16.5 412.07-15.87Q412.02-14.6 412.12-13.31 412.21-12.01 412.21-10.74L412.21-10.74Q412.21-9.62 412.09-8.5 411.97-7.37 411.97-6.2L411.97-6.2Q411.97-5.13 412.12-4.1 412.26-3.08 412.26-2L412.26-2Q412.02-1.56 411.97-1.32 411.92-1.07 411.77-0.88L411.77-0.88Q411.63-0.78 411.46-0.83 411.29-0.88 411.19-0.73L411.19-0.73Q410.94-0.44 410.85-0.05 410.75 0.34 410.36 0.59L410.36 0.59Q410.26 1.27 409.85 1.64 409.43 2 409.23 2.59L409.23 2.59Q408.65 2.64 408.43 2.54 408.21 2.44 407.97 2.34L407.97 2.34Q407.92 1.51 407.99 1.15 408.06 0.78 408.06 0.39L408.06 0.39Q408.06-0.1 407.82-0.34 407.57-0.59 407.48-0.98L407.48-0.98Q406.94-1.32 406.74-1.44 406.55-1.56 406.4-1.76L406.4-1.76Q406.11-2.15 405.91-2.59 405.72-3.03 405.48-3.42L405.48-3.42Q404.79-4.54 404.08-5.71 403.38-6.88 402.55-8.01L402.55-8.01Q402.4-8.25 402.2-8.45 402.01-8.64 401.86-8.89L401.86-8.89Q401.03-10.21 400.3-11.57 399.57-12.94 398.59-14.16L398.59-14.16Q398.2-14.65 398-15.26 397.81-15.87 397.42-16.31L397.42-16.31Q397.37-16.06 397.37-15.77 397.37-15.48 397.37-15.23L397.37-15.23Q397.37-13.57 397.44-11.94 397.52-10.3 397.52-8.64L397.52-8.64Q397.52-8.3 397.44-8.03 397.37-7.76 397.37-7.42L397.37-7.42Q397.37-6.93 397.42-6.49 397.47-6.05 397.47-5.62L397.47-5.62Q397.47-5.08 397.44-4.59 397.42-4.1 397.37-3.61L397.37-3.61Q397.27-2.98 397.13-2.42 396.98-1.86 396.98-1.27L396.98-1.27Q396.98-0.93 397.05-0.63 397.13-0.34 397.13-0.1L397.13-0.1Q396.78 0.44 396.27 0.44 395.76 0.44 395.42 0.83L395.42 0.83Q395.12 0.78 394.95 0.88 394.78 0.98 394.64 0.98L394.64 0.98Q394.44 0.98 394.32 0.93 394.2 0.88 394.05 0.88L394.05 0.88Q393.81 0.88 393.56 1.12 393.32 1.37 393.07 1.37L393.07 1.37Q392.93 1.37 392.56 1.17 392.19 0.98 391.78 0.71 391.36 0.44 391.02 0.17 390.68-0.1 390.68-0.24L390.68-0.24Q390.63-0.49 390.63-0.93L390.63-0.93Q390.63-1.51 390.7-2.08 390.78-2.64 390.88-3.22L390.88-3.22Q391.02-4.88 391.02-6.52 391.02-8.15 391.02-9.81L391.02-9.81Q391.02-10.5 391.05-11.18 391.07-11.87 391.07-12.55L391.07-12.55Q391.07-14.16 390.95-15.8 390.83-17.43 390.83-19.04L390.83-19.04Q390.83-20.17 390.92-21.26 391.02-22.36 391.02-23.44L391.02-23.44Q391.02-24.27 390.97-25.05 390.92-25.83 390.92-26.66L390.92-26.66Q390.88-27.2 390.92-27.81 390.97-28.42 390.97-28.96L390.97-28.96Q390.97-29.59 390.8-30.15 390.63-30.71 390.63-31.2L390.63-31.2Q390.63-31.49 390.75-31.76 390.88-32.03 390.88-32.32L390.88-32.32Q390.88-32.71 390.75-33.11 390.63-33.5 390.63-33.89L390.63-33.89Q390.63-34.28 390.73-34.62 390.83-34.96 390.83-35.35L390.83-35.35Q391.51-35.69 392.05-35.69L392.05-35.69Q392.58-35.69 392.83-35.3L392.83-35.3Q392.83-34.42 392.93-33.96 393.02-33.5 393.07-33.01L393.07-33.01Q393.07-32.71 393.05-32.32 393.02-31.93 393.07-31.57 393.12-31.2 393.29-30.96 393.46-30.71 393.9-30.71L393.9-30.71Q394-30.47 394.15-30.27 394.29-30.08 394.34-29.79L394.34-29.79Q394.64-29.98 394.68-30.32 394.73-30.66 394.68-30.96L394.68-30.96Q394.93-30.86 395.12-30.88 395.32-30.91 395.51-30.81L395.51-30.81Q395.61-30.13 395.76-29.61 395.9-29.1 395.86-28.42L395.86-28.42Q396.83-27.69 397.54-26.34 398.25-25 398.88-23.93L398.88-23.93Q399.23-23.39 399.69-22.92 400.15-22.46 400.4-21.83L400.4-21.83Q400.79-21.58 401.03-21.19 401.28-20.8 401.47-20.41L401.47-20.41Q402.45-18.7 403.62-17.09 404.79-15.48 406.06-13.92L406.06-13.92Q406.11-14.26 406.11-14.58 406.11-14.89 406.11-15.23L406.11-15.23 406.06-19.63Q406.06-20.02 406.04-20.36 406.01-20.7 405.96-21.09L405.96-21.09Q405.87-22.36 405.91-23.58 405.96-24.8 405.91-26.07L405.91-26.07Q405.82-27.39 405.79-28.76 405.77-30.13 405.67-31.49L405.67-31.49Q405.62-32.32 405.57-33.15 405.52-33.98 405.52-34.81L405.52-34.81Q405.52-35.84 405.72-36.67L405.72-36.67Q405.82-36.77 405.94-36.84 406.06-36.91 406.26-36.91L406.26-36.91Q406.55-36.91 406.65-36.43ZM425.44-12.79L425.44-12.79Q425.54-12.55 426.15-11.77 426.76-10.99 427.54-10.06 428.32-9.13 429.03-8.28 429.74-7.42 430.03-7.03L430.03-7.03Q430.57-6.35 431.08-5.69 431.6-5.03 432.04-4.3L432.04-4.3 432.91-2.83Q433.3-2.34 433.62-2 433.94-1.66 434.13-1.07L434.13-1.07Q434.23-0.68 434.23-0.54L434.23-0.54Q434.23-0.2 433.99-0.05L433.99-0.05Q433.6-0.05 433.57 0.07 433.55 0.2 433.35 0.29L433.35 0.29Q433.16 0.39 432.74 0.42 432.33 0.44 432.08 0.44L432.08 0.44Q431.64 0.44 430.99 0.42 430.33 0.39 429.94 0.54L429.94 0.54Q429.84 0.59 429.64 0.68 429.45 0.78 429.35 0.78L429.35 0.78Q428.96 0.78 428.79 0.66 428.62 0.54 428.32 0.49L428.32 0.49Q427.93 0.05 427.66-0.42 427.4-0.88 427.05-1.37L427.05-1.37Q426.71-1.71 426.37-1.98 426.03-2.25 425.79-2.59L425.79-2.59Q425.05-3.66 424.27-4.69 423.49-5.71 422.66-6.69L422.66-6.69Q422.27-7.23 421.83-7.67 421.39-8.11 421-8.64L421-8.64Q420.61-9.13 420.27-9.69 419.93-10.25 419.58-10.79L419.58-10.79Q419.29-11.23 418.8-11.94 418.31-12.65 417.73-13.35 417.14-14.06 416.56-14.7 415.97-15.33 415.58-15.67L415.58-15.67Q415.53-15.97 415.34-16.14 415.14-16.31 414.9-16.46L414.9-16.46Q414.8-16.7 414.68-16.92 414.55-17.14 414.55-17.38L414.55-17.38Q414.55-17.72 414.7-18.02L414.7-18.02Q414.8-18.21 414.82-18.38 414.85-18.55 414.95-18.75L414.95-18.75Q415.19-19.29 415.6-19.8 416.02-20.31 416.26-20.9L416.26-20.9Q416.36-21.04 416.36-21.22 416.36-21.39 416.46-21.53L416.46-21.53Q416.56-21.92 416.87-22.19 417.19-22.46 417.39-22.8L417.39-22.8Q417.63-23.19 417.85-23.61 418.07-24.02 418.31-24.51L418.31-24.51Q419.05-25.73 419.85-26.88 420.66-28.03 421.49-29.2L421.49-29.2Q422.12-30.18 422.73-31.08 423.34-31.98 423.98-32.91L423.98-32.91Q424.32-33.35 424.71-33.94 425.1-34.52 425.57-35.11 426.03-35.69 426.52-36.18 427.01-36.67 427.49-36.96L427.49-36.96Q428.23-37.01 428.47-36.65 428.71-36.28 429.2-36.28L429.2-36.28Q429.84-36.13 430.03-35.89 430.23-35.64 430.47-35.4L430.47-35.4Q431.16-35.4 431.57-35.16 431.99-34.91 432.38-34.42L432.38-34.42Q432.23-33.89 431.94-33.47 431.64-33.06 431.4-32.62L431.4-32.62Q431.01-32.42 430.84-32.08 430.67-31.74 430.33-31.54L430.33-31.54Q429.84-30.71 429.3-29.96 428.76-29.2 428.23-28.47L428.23-28.47Q427.93-28.03 427.62-27.69 427.3-27.34 427.05-26.95L427.05-26.95Q426.96-26.81 426.88-26.64 426.81-26.46 426.71-26.32L426.71-26.32Q426.13-25.39 425.44-24.58 424.76-23.78 424.17-22.8L424.17-22.8Q423.98-22.46 423.86-22.09 423.73-21.73 423.54-21.39L423.54-21.39Q423.34-21.09 422.98-20.61 422.61-20.12 422.27-19.56 421.93-18.99 421.66-18.48 421.39-17.97 421.39-17.63L421.39-17.63Q421.44-17.38 422-16.67 422.56-15.97 423.27-15.16 423.98-14.36 424.61-13.65 425.25-12.94 425.44-12.79ZM428.67-21.68L428.67-21.68Q429.01-20.95 429.4-20.41L429.4-20.41Q429.54-20.21 429.74-20.07 429.94-19.92 430.03-19.68L430.03-19.68Q430.13-19.58 430.23-19.26 430.33-18.95 430.42-18.8L430.42-18.8Q430.57-18.41 431.01-17.92 431.45-17.43 431.45-17.04L431.45-17.04Q431.45-16.8 431.35-16.5 431.25-16.21 431.21-15.97L431.21-15.97Q431.16-15.67 431.16-15.36 431.16-15.04 430.96-14.79L430.96-14.79Q430.72-14.55 430.42-14.5 430.13-14.45 429.89-14.26L429.89-14.26Q429.79-14.16 429.59-13.92 429.4-13.67 429.2-13.38 429.01-13.09 428.84-12.82 428.67-12.55 428.67-12.4L428.67-12.4Q428.08-12.35 427.91-12.38 427.74-12.4 427.54-12.35L427.54-12.35Q427.3-12.6 427.03-12.77 426.76-12.94 426.37-13.09L426.37-13.09Q426.27-13.48 425.93-13.99 425.59-14.5 425.35-14.84L425.35-14.84 425-15.28Q424.27-16.31 423.66-17.26 423.05-18.21 422.76-19.38L422.76-19.38Q423.69-20.07 424.2-20.41 424.71-20.75 425.3-21.04 425.88-21.34 426.44-21.61 427.01-21.88 427.49-22.27L427.49-22.27Q427.88-22.27 428.03-22.22 428.18-22.17 428.23-22.12 428.28-22.07 428.35-21.95 428.42-21.83 428.67-21.68Z" opacity="1" transform="matrix(1,0,0,1,0,0)" fill="#ffffff" class="slogan-text-1" data-fill-palette-color="secondary" id="text-1"></path></svg></g></svg></g></svg></g></svg></g><g transform="matrix(1,0,0,1,45.332186663186135,0)"><svg viewBox="0 0 146.67691810392162 146.6769181039216" height="146.6769181039216" width="146.67691810392162"><g><svg></svg></g><g id="icon-0"><svg viewBox="0 0 146.67691810392162 146.6769181039216" height="146.6769181039216" width="146.67691810392162"><g><path transform="scale(1.46677,1.46677)" d="M30 100c-16.569 0-30-13.431-30-30v-40c0-16.569 13.431-30 30-30h40c16.569 0 30 13.431 30 30v40c0 16.569-13.431 30-30 30z" fill="#ffffff" fill-rule="nonzero" stroke="none" stroke-width="1" stroke-linecap="butt" stroke-linejoin="miter" stroke-miterlimit="10" stroke-dasharray="" stroke-dashoffset="0" font-family="none" font-weight="none" font-size="none" text-anchor="none" style="mix-blend-mode: normal" data-fill-palette-color="accent"></path></g><g transform="matrix(1,0,0,1,29.816046075088444,29.33538362078432)"><svg viewBox="0 0 87.04482595374473 88.00615086235295" height="88.00615086235295" width="87.04482595374473"><g><svg xmlns="http://www.w3.org/2000/svg" xmlns:xlink="http://www.w3.org/1999/xlink" version="1.1" x="0" y="0" viewBox="11.246 10.818 77.508 78.364" enable-background="new 0 0 100 100" xml:space="preserve" height="88.00615086235295" width="87.04482595374473" class="icon-cg-0" data-fill-palette-color="quaternary" id="cg-0"><g fill="#e9efe7" data-fill-palette-color="quaternary"><rect x="25.512" y="25.512" width="48.977" height="48.977" fill="#000000" data-fill-palette-color="quaternary"></rect><rect x="28.25" y="17.97" width="4.979" height="4.979" fill="#000000" data-fill-palette-color="quaternary"></rect><rect x="29.76" y="10.845" width="1.96" height="6.039" fill="#000000" data-fill-palette-color="quaternary"></rect><rect x="36.375" y="17.957" width="4.979" height="4.979" fill="#000000" data-fill-palette-color="quaternary"></rect><rect x="37.885" y="10.831" width="1.96" height="6.039" fill="#000000" data-fill-palette-color="quaternary"></rect><rect x="44.125" y="17.957" width="4.979" height="4.979" fill="#000000" data-fill-palette-color="quaternary"></rect><rect x="45.635" y="10.831" width="1.96" height="6.039" fill="#000000" data-fill-palette-color="quaternary"></rect><rect x="51.5" y="17.943" width="4.979" height="4.979" fill="#000000" data-fill-palette-color="quaternary"></rect><rect x="53.01" y="10.818" width="1.961" height="6.039" fill="#000000" data-fill-palette-color="quaternary"></rect><rect x="58.875" y="17.957" width="4.979" height="4.979" fill="#000000" data-fill-palette-color="quaternary"></rect><rect x="60.385" y="10.831" width="1.961" height="6.039" fill="#000000" data-fill-palette-color="quaternary"></rect><rect x="66" y="17.957" width="4.979" height="4.979" fill="#000000" data-fill-palette-color="quaternary"></rect><rect x="67.51" y="10.831" width="1.961" height="6.039" fill="#000000" data-fill-palette-color="quaternary"></rect><rect x="28.25" y="77.051" width="4.979" height="4.979" fill="#000000" data-fill-palette-color="quaternary"></rect><rect x="29.76" y="83.117" width="1.96" height="6.039" fill="#000000" data-fill-palette-color="quaternary"></rect><rect x="36.375" y="77.064" width="4.979" height="4.979" fill="#000000" data-fill-palette-color="quaternary"></rect><rect x="37.885" y="83.13" width="1.96" height="6.039" fill="#000000" data-fill-palette-color="quaternary"></rect><rect x="36.375" y="77.064" width="4.979" height="4.979" fill="#000000" data-fill-palette-color="quaternary"></rect><rect x="37.885" y="83.13" width="1.96" height="6.039" fill="#000000" data-fill-palette-color="quaternary"></rect><rect x="44.125" y="77.064" width="4.979" height="4.979" fill="#000000" data-fill-palette-color="quaternary"></rect><rect x="45.635" y="83.13" width="1.96" height="6.039" fill="#000000" data-fill-palette-color="quaternary"></rect><rect x="51.5" y="77.078" width="4.979" height="4.979" fill="#000000" data-fill-palette-color="quaternary"></rect><rect x="53.01" y="83.143" width="1.961" height="6.039" fill="#000000" data-fill-palette-color="quaternary"></rect><rect x="58.875" y="77.064" width="4.979" height="4.979" fill="#000000" data-fill-palette-color="quaternary"></rect><rect x="60.385" y="83.13" width="1.961" height="6.039" fill="#000000" data-fill-palette-color="quaternary"></rect><rect x="66" y="77.064" width="4.979" height="4.979" fill="#000000" data-fill-palette-color="quaternary"></rect><rect x="67.51" y="83.13" width="1.961" height="6.039" fill="#000000" data-fill-palette-color="quaternary"></rect><rect x="76.623" y="66.639" width="4.98" height="4.979" fill="#000000" data-fill-palette-color="quaternary"></rect><rect x="82.689" y="68.148" width="6.039" height="1.959" fill="#000000" data-fill-palette-color="quaternary"></rect><rect x="76.637" y="58.515" width="4.979" height="4.978" fill="#000000" data-fill-palette-color="quaternary"></rect><rect x="82.703" y="60.023" width="6.039" height="1.959" fill="#000000" data-fill-palette-color="quaternary"></rect><rect x="76.637" y="50.765" width="4.979" height="4.979" fill="#000000" data-fill-palette-color="quaternary"></rect><rect x="82.703" y="52.273" width="6.039" height="1.96" fill="#000000" data-fill-palette-color="quaternary"></rect><rect x="76.65" y="43.39" width="4.979" height="4.979" fill="#000000" data-fill-palette-color="quaternary"></rect><rect x="82.715" y="44.898" width="6.039" height="1.96" fill="#000000" data-fill-palette-color="quaternary"></rect><rect x="76.637" y="36.015" width="4.979" height="4.979" fill="#000000" data-fill-palette-color="quaternary"></rect><rect x="82.703" y="37.523" width="6.039" height="1.96" fill="#000000" data-fill-palette-color="quaternary"></rect><rect x="76.637" y="28.89" width="4.979" height="4.979" fill="#000000" data-fill-palette-color="quaternary"></rect><rect x="82.703" y="30.398" width="6.039" height="1.96" fill="#000000" data-fill-palette-color="quaternary"></rect><rect x="18.397" y="66.639" width="4.979" height="4.979" fill="#000000" data-fill-palette-color="quaternary"></rect><rect x="11.272" y="68.148" width="6.039" height="1.959" fill="#000000" data-fill-palette-color="quaternary"></rect><rect x="18.384" y="58.515" width="4.979" height="4.978" fill="#000000" data-fill-palette-color="quaternary"></rect><rect x="11.258" y="60.023" width="6.039" height="1.959" fill="#000000" data-fill-palette-color="quaternary"></rect><rect x="18.384" y="50.765" width="4.979" height="4.979" fill="#000000" data-fill-palette-color="quaternary"></rect><rect x="11.258" y="52.273" width="6.039" height="1.96" fill="#000000" data-fill-palette-color="quaternary"></rect><rect x="18.371" y="43.39" width="4.979" height="4.979" fill="#000000" data-fill-palette-color="quaternary"></rect><rect x="11.246" y="44.898" width="6.039" height="1.96" fill="#000000" data-fill-palette-color="quaternary"></rect><rect x="18.384" y="36.015" width="4.979" height="4.979" fill="#000000" data-fill-palette-color="quaternary"></rect><rect x="11.258" y="37.523" width="6.039" height="1.96" fill="#000000" data-fill-palette-color="quaternary"></rect><rect x="18.384" y="28.89" width="4.979" height="4.979" fill="#000000" data-fill-palette-color="quaternary"></rect><rect x="11.258" y="30.398" width="6.039" height="1.96" fill="#000000" data-fill-palette-color="quaternary"></rect></g></svg></g></svg></g></svg></g></svg></g><g></g></svg></g></svg></g><defs></defs></svg><rect width="110.59095939373421" height="247.2" fill="none" stroke="none" visibility="hidden"></rect></g></svg></g></svg>